<svg width="32" height="32" viewBox="0 0 32 32" fill="none" xmlns="http://www.w3.org/2000/svg">
<g clip-path="url(#clip0_47_21)">
<path d="M20.3876 3.29237L20.3876 3.29237C22.0241 3.59531 23.6696 3.84943 25.3145 4.10346C25.4931 4.13104 25.6717 4.15862 25.8503 4.18627L25.8503 4.18627C26.2422 4.24663 26.5592 4.40866 26.7781 4.6517C26.9969 4.89449 27.1209 5.22163 27.1209 5.61847C27.1209 6.96817 27.1277 8.3175 27.1344 9.66662C27.1499 12.7418 27.1653 15.816 27.1005 18.8912C27.0561 21.0096 26.5123 22.8172 25.5005 24.3138C24.4886 25.8105 23.0068 26.9991 21.082 27.8761L21.082 27.8762C20.2748 28.2455 19.4615 28.5952 18.6478 28.9451C18.0104 29.2192 17.3726 29.4934 16.7372 29.7774L16.7372 29.7773L16.7357 29.7781C16.5017 29.8919 16.2451 29.951 15.9851 29.951C15.7251 29.951 15.4685 29.8919 15.2345 29.778L15.2331 29.7774C14.6152 29.4999 13.9933 29.2341 13.3717 28.9685C12.4057 28.5556 11.4406 28.1431 10.493 27.6879C7.32357 26.1595 5.47809 23.6245 4.94581 20.1377C4.87857 19.6619 4.84681 19.1817 4.85078 18.7011L4.85078 18.7006C4.84349 14.3762 4.84203 10.0519 4.84641 5.72748V5.72743C4.84641 5.25438 4.96408 4.89888 5.19141 4.64678C5.41893 4.39449 5.76248 4.23887 6.22813 4.1784C8.95201 3.82589 11.6708 3.42032 14.3049 2.58958L14.2899 2.54198L14.305 2.58958C14.6408 2.48363 14.97 2.35076 15.2967 2.21892C15.438 2.16191 15.5788 2.10509 15.7195 2.05072L16.2495 2.05001C17.5771 2.64043 18.9687 3.02921 20.3876 3.29237ZM5.74169 19.8511L5.74183 19.8521C6.21245 23.21 7.9802 25.6233 11.0566 27.039C11.9943 27.4706 12.944 27.8793 13.8932 28.2879C14.4561 28.5302 15.0189 28.7725 15.5789 29.0193C15.7065 29.0819 15.8467 29.1145 15.9887 29.1145C16.1308 29.1145 16.271 29.0819 16.3987 29.0193C17.86 28.3711 19.325 27.7304 20.7936 27.0973L20.7937 27.0972C21.7461 26.683 22.6265 26.1477 23.3923 25.4323L23.3924 25.4322C25.3659 23.5794 26.3018 21.2842 26.2952 18.5843C26.2894 16.249 26.2913 13.9136 26.2933 11.5781C26.2943 10.4103 26.2952 9.2426 26.2952 8.07491V8.07015V8.06539V8.06062V8.05586V8.0511V8.04634V8.04158V8.03682V8.03206V8.0273V8.02254V8.01778V8.01302V8.00826V8.0035V7.99874V7.99398V7.98922V7.98446V7.9797V7.97494V7.97018V7.96542V7.96066V7.9559V7.95114V7.94638V7.94162V7.93686V7.9321V7.92734V7.92258V7.91782V7.91306V7.9083V7.90354V7.89878V7.89402V7.88926V7.8845V7.87974V7.87498V7.87022V7.86546V7.8607V7.85594V7.85118V7.84642V7.84166V7.8369V7.83214V7.82738V7.82262V7.81786V7.8131V7.80834V7.80358V7.79882V7.79406V7.7893V7.78454V7.77978V7.77502V7.77026V7.7655V7.76074V7.75598V7.75122V7.74646V7.7417V7.73694V7.73219V7.72743V7.72267V7.71791V7.71315V7.70839V7.70363V7.69887V7.69411V7.68935V7.68459V7.67983V7.67507V7.67031V7.66555V7.66079V7.65604V7.65128V7.64652V7.64176V7.637V7.63224V7.62748V7.62272V7.61796V7.6132V7.60844V7.60368V7.59893V7.59417V7.58941V7.58465V7.57989V7.57513V7.57037V7.56561V7.56085V7.55609V7.55134V7.54658V7.54182V7.53706V7.5323V7.52754V7.52278V7.51802V7.51326V7.50851V7.50375V7.49899V7.49423V7.48947V7.48471V7.47995V7.47519V7.47044V7.46568V7.46092V7.45616V7.4514V7.44664V7.44188V7.43712V7.43237V7.42761V7.42285V7.41809V7.41333V7.40857V7.40381V7.39906V7.3943V7.38954V7.38478V7.38002V7.37526V7.3705V7.36575V7.36099V7.35623V7.35147V7.34671V7.34195V7.3372V7.33244V7.32768V7.32292V7.31816V7.3134V7.30865V7.30389V7.29913V7.29437V7.28961V7.28485V7.2801V7.27534V7.27058V7.26582V7.26106V7.2563V7.25155V7.24679V7.24203V7.23727V7.23251V7.22776V7.223V7.21824V7.21348V7.20872V7.20396V7.19921V7.19445V7.18969V7.18493V7.18017V7.17542V7.17066V7.1659V7.16114V7.15638V7.15163V7.14687V7.14211V7.13735V7.1326V7.12784V7.12308V7.11832V7.11356V7.10881V7.10405V7.09929V7.09453V7.08977V7.08502V7.08026V7.0755V7.07074V7.06599V7.06123V7.05647V7.05171V7.04695V7.0422V7.03744V7.03268V7.02792V7.02317V7.01841V7.01365V7.00889V7.00413V6.99938V6.99462V6.98986V6.9851V6.98035V6.97559V6.97083V6.96607V6.96132V6.95656V6.9518V6.94704V6.94229V6.93753V6.93277V6.92801V6.92326V6.9185V6.91374V6.90898V6.90423V6.89947V6.89471V6.88995V6.8852V6.88044V6.87568V6.87092V6.86617V6.86141V6.85665V6.85189V6.84714V6.84238V6.83762V6.83286V6.82811V6.82335V6.81859V6.81384V6.80908V6.80432V6.79956V6.79481V6.79005V6.78529V6.78053V6.77578V6.77102V6.76626V6.76151V6.75675V6.75199V6.74723V6.74248V6.73772V6.73296V6.72821V6.72345V6.71869V6.71393V6.70918V6.70442V6.69966V6.69491V6.69015V6.68539V6.68063V6.67588V6.67112V6.66636V6.66161V6.65685V6.65209V6.64733V6.64258V6.63782V6.63306V6.62831V6.62355V6.61879V6.61404V6.60928V6.60452V6.59976V6.59501V6.59025V6.58549V6.58074V6.57598V6.57122V6.56647V6.56171V6.55695V6.5522V6.54744V6.54268V6.53792V6.53317V6.52841V6.52365V6.5189V6.51414V6.50938V6.50463V6.49987V6.49511V6.49036V6.4856V6.48084V6.47609V6.47133V6.46657V6.46181V6.45706V6.4523V6.44754V6.44279V6.43803V6.43327V6.42852V6.42376V6.419V6.41425V6.40949V6.40473V6.39998V6.39522V6.39046V6.38571V6.38095V6.37619V6.37144V6.36668V6.36192V6.35717V6.35241V6.34765V6.3429V6.33814V6.33338V6.32863V6.32387V6.31911V6.31436V6.3096V6.30484V6.30009V6.29533V6.29057V6.28582V6.28106V6.2763V6.27155V6.26679V6.26203V6.25728V6.25252V6.24776V6.24301V6.23825V6.23349V6.22874V6.22398V6.21922V6.21447V6.20971V6.20496V6.2002V6.19544V6.19069V6.18593V6.18117V6.17642V6.17166V6.1669V6.16215V6.15739V6.15263V6.14788V6.14312V6.13836V6.13361V6.12885V6.12409V6.11934V6.11458V6.10983V6.10507V6.10031V6.09556V6.0908V6.08604V6.08129V6.07653V6.07177V6.06702V6.06226V6.0575V6.05275V6.04799V6.04323V6.03848V6.03372V6.02897V6.02421V6.01945V6.0147V6.00994V6.00518V6.00043V5.99567V5.99091V5.98616V5.9814V5.97664V5.97189V5.96713V5.96238V5.95762V5.95286V5.94811V5.94335V5.93859V5.93384V5.92908V5.92432V5.91957V5.91481V5.91006V5.9053V5.90054V5.89579V5.89103V5.88627V5.88152V5.87676V5.872V5.86725V5.86249V5.85774V5.85298V5.84822V5.84347V5.83871V5.83395V5.8292V5.82444V5.81969V5.81493V5.81017V5.80542V5.80066V5.7959V5.79115V5.78639V5.78163V5.77688V5.77212V5.76737V5.76261V5.75785V5.7531V5.74834V5.74358V5.73883V5.73407V5.72932V5.72456V5.7198V5.71505V5.71029V5.70553V5.70078V5.69602V5.69126V5.68651V5.68175V5.677V5.67224V5.66748V5.66273V5.65797V5.65321V5.64846V5.6437V5.63895C26.2952 5.45309 26.256 5.30877 26.1644 5.20438C26.0728 5.10011 25.9362 5.04404 25.7601 5.01832L25.7599 5.0183C25.4821 4.97889 25.2047 4.94041 24.9276 4.90199C24.0678 4.78273 23.2118 4.66402 22.3607 4.51977C20.2728 4.16297 18.2021 3.74902 16.2292 2.95404L16.2291 2.95399C16.1491 2.92202 16.0558 2.91496 15.9653 2.92119C15.8742 2.92745 15.7823 2.94739 15.703 2.97249L15.703 2.9725C15.4766 3.04437 15.2534 3.12725 15.0317 3.20962C15.0106 3.21744 14.9895 3.22527 14.9685 3.23308C14.7255 3.32323 14.4836 3.41153 14.2378 3.48412L14.2377 3.48416C11.6523 4.25665 8.99695 4.6592 6.32752 5.01018L6.32748 5.01019C6.08455 5.04232 5.91636 5.08999 5.81323 5.20674C5.71004 5.32356 5.68226 5.49783 5.68226 5.7501V12.677V12.6887V12.7005V12.7123V12.724V12.7358V12.7475V12.7593V12.7711V12.7828V12.7946V12.8064V12.8181V12.8299V12.8416V12.8534V12.8652V12.8769V12.8887V12.9005V12.9122V12.924V12.9357V12.9475V12.9593V12.971V12.9828V12.9945V13.0063V13.0181V13.0298V13.0416V13.0534V13.0651V13.0769V13.0886V13.1004V13.1122V13.1239V13.1357V13.1475V13.1592V13.171V13.1827V13.1945V13.2063V13.218V13.2298V13.2415V13.2533V13.2651V13.2768V13.2886V13.3003V13.3121V13.3239V13.3356V13.3474V13.3592V13.3709V13.3827V13.3944V13.4062V13.418V13.4297V13.4415V13.4532V13.465V13.4768V13.4885V13.5003V13.5121V13.5238V13.5356V13.5473V13.5591V13.5709V13.5826V13.5944V13.6061V13.6179V13.6297V13.6414V13.6532V13.6649V13.6767V13.6885V13.7002V13.712V13.7238V13.7355V13.7473V13.759V13.7708V13.7826V13.7943V13.8061V13.8178V13.8296V13.8414V13.8531V13.8649V13.8766V13.8884V13.9002V13.9119V13.9237V13.9354V13.9472V13.959V13.9707V13.9825V13.9943V14.006V14.0178V14.0295V14.0413V14.0531V14.0648V14.0766V14.0883V14.1001V14.1119V14.1236V14.1354V14.1471V14.1589V14.1707V14.1824V14.1942V14.2059V14.2177V14.2295V14.2412V14.253V14.2647V14.2765V14.2883V14.3V14.3118V14.3235V14.3353V14.3471V14.3588V14.3706V14.3824V14.3941V14.4059V14.4176V14.4294V14.4412V14.4529V14.4647V14.4764V14.4882V14.5V14.5117V14.5235V14.5352V14.547V14.5588V14.5705V14.5823V14.594V14.6058V14.6176V14.6293V14.6411V14.6528V14.6646V14.6764V14.6881V14.6999V14.7116V14.7234V14.7352V14.7469V14.7587V14.7704V14.7822V14.794V14.8057V14.8175V14.8292V14.841V14.8528V14.8645V14.8763V14.888V14.8998V14.9116V14.9233V14.9351V14.9468V14.9586V14.9704V14.9821V14.9939V15.0056V15.0174V15.0292V15.0409V15.0527V15.0644V15.0762V15.088V15.0997V15.1115V15.1232V15.135V15.1468V15.1585V15.1703V15.182V15.1938V15.2056V15.2173V15.2291V15.2409V15.2526V15.2644V15.2761V15.2879V15.2997V15.3114V15.3232V15.3349V15.3467V15.3585V15.3702V15.382V15.3937V15.4055V15.4173V15.429V15.4408V15.4525V15.4643V15.4761V15.4878V15.4996V15.5113V15.5231V15.5349V15.5466V15.5584V15.5701V15.5819V15.5937V15.6054V15.6172V15.6289V15.6407V15.6525V15.6642V15.676V15.6877V15.6995V15.7113V15.723V15.7348V15.7465V15.7583V15.7701V15.7818V15.7936V15.8053V15.8171V15.8289V15.8406V15.8524V15.8641V15.8759V15.8877V15.8994V15.9112V15.9229V15.9347V15.9465V15.9582V15.97V15.9817V15.9935V16.0053V16.017V16.0288V16.0405V16.0523V16.0641V16.0758V16.0876V16.0993V16.1111V16.1229V16.1346V16.1464V16.1581V16.1699V16.1817V16.1934V16.2052V16.2169V16.2287V16.2405V16.2522V16.264V16.2757V16.2875V16.2993V16.311V16.3228V16.3345V16.3463V16.3581V16.3698V16.3816V16.3933V16.4051V16.4169V16.4286V16.4404V16.4521V16.4639V16.4757V16.4874V16.4992V16.5109V16.5227V16.5345V16.5462V16.558V16.5697V16.5815V16.5933V16.605V16.6168V16.6285V16.6403V16.6521V16.6638V16.6756V16.6873V16.6991V16.7109V16.7226V16.7344V16.7461V16.7579V16.7697V16.7814V16.7932V16.8049V16.8167V16.8285V16.8402V16.852V16.8638V16.8755V16.8873V16.899V16.9108V16.9226V16.9343V16.9461V16.9578V16.9696V16.9814V16.9931V17.0049V17.0166V17.0284V17.0402V17.0519V17.0637V17.0754V17.0872V17.099V17.1107V17.1225V17.1342V17.146V17.1578V17.1695V17.1813V17.193V17.2048V17.2166V17.2283V17.2401V17.2518V17.2636V17.2754V17.2871V17.2989V17.3107V17.3224V17.3342V17.3459V17.3577V17.3695V17.3812V17.393V17.4047V17.4165V17.4283V17.44V17.4518V17.4635V17.4753V17.4871V17.4988V17.5106V17.5223V17.5341V17.5459V17.5576V17.5694V17.5811V17.5929V17.6047V17.6164V17.6282V17.64V17.6517V17.6635V17.6752V17.687V17.6988V17.7105V17.7223V17.734V17.7458V17.7576V17.7693V17.7811V17.7928V17.8046V17.8164V17.8281V17.8399V17.8517V17.8634V17.8752V17.8869V17.8987V17.9105V17.9222V17.934V17.9457V17.9575V17.9693V17.981V17.9928V18.0045V18.0163V18.0281V18.0398V18.0516V18.0634V18.0751V18.0869V18.0986V18.1104V18.1222V18.1339V18.1457V18.1574V18.1692V18.181V18.1927V18.2045V18.2163V18.228V18.2398V18.2515V18.2633V18.2751V18.2868V18.2986V18.3103V18.3221V18.3339V18.3456V18.3574V18.3692V18.3809V18.3927V18.4044V18.4162V18.428V18.4397V18.4515V18.4633V18.475V18.4868V18.4985V18.5103V18.5221V18.5338V18.5456V18.5573V18.5691V18.5809V18.5926V18.6044V18.6162V18.6279V18.6397V18.6514V18.6632V18.675V18.6867V18.6981C5.67596 19.0833 5.69582 19.4686 5.74169 19.8511Z" fill="#774AD6" stroke="white" stroke-width="0.1"/>
<mask id="path-2-inside-1_47_21" fill="white">
<path d="M6.6645 13.194C6.6645 11.1147 6.6645 9.03535 6.6645 6.95602C6.6645 6.24739 6.95627 5.92708 7.65141 5.82616C10.0447 5.47879 12.427 5.07804 14.7436 4.35771C14.9628 4.29844 15.1779 4.22516 15.3877 4.13832C15.7853 3.95696 16.1602 3.97963 16.5709 4.12881C18.4054 4.79576 20.3135 5.17018 22.2305 5.50073C22.9468 5.62432 23.6667 5.7289 24.3859 5.83347C24.9855 5.9205 25.3058 6.27225 25.3087 6.88508C25.3138 7.98861 25.3087 9.09215 25.3087 10.1964C25.3087 13.0485 25.3203 15.9057 25.305 18.7599C25.2919 21.2866 24.3342 23.3964 22.3749 24.9943C21.7914 25.4711 21.1072 25.8484 20.4222 26.1738C19.1428 26.7794 17.8298 27.3096 16.5322 27.8844C16.3604 27.9664 16.1723 28.0086 15.982 28.0077C15.7917 28.0068 15.604 27.9629 15.433 27.8792C14.1309 27.2942 12.807 26.7567 11.5145 26.1592C8.38668 24.7164 6.7637 22.2468 6.67325 18.8031C6.62365 16.9346 6.6645 15.0639 6.6645 13.194ZM24.3772 6.78197C23.8338 6.6986 23.3305 6.6262 22.8286 6.54357C20.5674 6.17426 18.3171 5.75522 16.1507 4.97858C16.0413 4.94237 15.9231 4.94237 15.8137 4.97858C14.4526 5.47587 13.0499 5.82177 11.6312 6.09601C10.3029 6.35343 8.96657 6.56916 7.61056 6.80683C7.60692 6.8668 7.59743 6.94724 7.59743 7.02622C7.59743 10.9577 7.59743 14.8892 7.59743 18.8206C7.58562 20.4605 8.15569 22.0512 9.20582 23.3086C9.27074 23.3869 9.34223 23.46 9.42028 23.5463C9.44508 23.4922 9.45894 23.4732 9.45894 23.4607C9.45894 22.0925 9.46477 20.7242 9.45529 19.3559C9.45529 19.2762 9.36338 19.1695 9.28606 19.1241C8.836 18.8608 8.57341 18.4798 8.53767 17.954C8.51943 17.6908 8.52818 17.4253 8.52818 17.1606C8.52818 16.0848 9.06796 15.54 10.1329 15.5386H10.8346V14.6244C10.1782 14.4906 9.92504 14.1776 9.92431 13.518C9.92431 13.281 9.93525 13.0426 9.91847 12.8071C9.91209 12.7045 9.87032 12.6073 9.80031 12.5322C9.69381 12.4385 9.60889 12.3228 9.55146 12.193C9.49402 12.0632 9.46544 11.9224 9.46769 11.7804C9.46769 11.3248 9.44289 10.8663 9.47863 10.4129C9.49468 10.2001 9.57345 9.94191 9.71788 9.8015C9.90899 9.61502 9.94546 9.43074 9.92942 9.19818C9.92358 9.10711 9.92358 9.01575 9.92942 8.92468C9.94828 8.58862 10.0872 8.27062 10.3209 8.02889C10.5545 7.78715 10.8671 7.63786 11.2015 7.60834C11.526 7.57507 11.8517 7.65956 12.1194 7.84648C12.3871 8.03339 12.579 8.31034 12.6604 8.62704C12.7209 8.86983 12.691 9.13383 12.7231 9.38539C12.7334 9.49566 12.7786 9.59972 12.8522 9.6823C12.9621 9.78019 13.0497 9.90071 13.1088 10.0356C13.168 10.1706 13.1974 10.3167 13.1951 10.4641C13.1951 10.8926 13.2162 11.3233 13.187 11.7497C13.1725 11.9581 13.128 12.2323 12.9894 12.3501C12.6976 12.5995 12.7166 12.8934 12.7209 13.2079C12.7209 13.3812 12.7253 13.5553 12.7173 13.7279C12.709 13.9301 12.6344 14.1239 12.505 14.2793C12.3756 14.4346 12.1987 14.5429 12.0017 14.5871L11.8092 14.6332V15.5217H15.503V14.1644L15.3571 14.1374C14.5547 13.9787 14.128 13.4639 14.1265 12.6463C14.1265 11.7343 14.1192 10.818 14.1265 9.90974C14.1254 9.56796 14.2536 9.23848 14.4852 8.98769C14.7168 8.7369 15.0346 8.58346 15.3746 8.55829C15.7827 8.52575 16.1927 8.52575 16.6008 8.55829C16.9361 8.58462 17.2495 8.73595 17.479 8.98247C17.7085 9.22898 17.8376 9.55277 17.8408 9.88999C17.8525 10.8568 17.851 11.8243 17.8408 12.7911C17.8345 13.0806 17.7373 13.3608 17.563 13.5918C17.3887 13.8227 17.1462 13.9927 16.8699 14.0774C16.7415 14.1169 16.6081 14.1374 16.4768 14.1674V15.5276H20.1815C20.1815 15.287 20.175 15.061 20.1815 14.8358C20.1874 14.6895 20.156 14.6164 19.986 14.582C19.5374 14.4935 19.2632 14.1476 19.2508 13.6906C19.2428 13.398 19.2603 13.1055 19.242 12.813C19.2314 12.703 19.1838 12.5998 19.1071 12.5205C19.0029 12.4253 18.9198 12.3093 18.8631 12.1799C18.8064 12.0506 18.7775 11.9107 18.7781 11.7694C18.7781 11.3226 18.7511 10.8729 18.789 10.4297C18.805 10.196 18.8938 9.97314 19.0429 9.79273C19.1203 9.72023 19.1798 9.63053 19.2164 9.53083C19.253 9.43113 19.2658 9.32421 19.2537 9.21866C19.2479 9.12758 19.2479 9.03623 19.2537 8.94515C19.2821 8.23652 19.8095 7.68659 20.5309 7.61273C20.8601 7.58266 21.1891 7.6729 21.4572 7.86682C21.7253 8.06075 21.9144 8.34528 21.9898 8.66799C22.0295 8.88278 22.0459 9.10125 22.0386 9.31958C22.0386 9.4907 22.0569 9.62453 22.2108 9.74373C22.4296 9.91559 22.5026 10.1745 22.5026 10.4516C22.5026 10.8904 22.5208 11.3292 22.4945 11.7643C22.4821 11.9647 22.4435 12.2367 22.3107 12.3406C21.9898 12.5921 22.0452 12.9066 22.0408 13.2262C22.0408 13.39 22.0474 13.5545 22.0408 13.7183C22.032 13.9253 21.9547 14.1233 21.821 14.2812C21.6873 14.4391 21.5049 14.5478 21.3027 14.5901C21.2436 14.6032 21.1845 14.6186 21.1283 14.6325V15.5612C21.493 15.5612 21.849 15.5364 22.1984 15.5663C22.515 15.591 22.8123 15.7285 23.0364 15.9541C23.2606 16.1796 23.3967 16.4782 23.4202 16.7957C23.4497 17.2049 23.4497 17.6157 23.4202 18.025C23.4086 18.2497 23.3373 18.4673 23.2137 18.6552C23.0901 18.843 22.9186 18.9943 22.717 19.0934C22.5376 19.1877 22.5048 19.2996 22.5055 19.4788C22.5113 20.7374 22.5055 21.9967 22.5055 23.2552C22.5055 23.343 22.5135 23.4307 22.5215 23.5843C22.6251 23.4673 22.6915 23.3986 22.7513 23.3247C23.8454 21.9901 24.3728 20.4529 24.3735 18.7307C24.3735 14.8445 24.3735 10.9587 24.3735 7.07303L24.3772 6.78197ZM21.5747 19.3055H10.4196C10.4113 19.3453 10.4055 19.3856 10.4021 19.4261C10.4021 21.0496 10.4021 22.6724 10.4065 24.2959C10.4117 24.3466 10.4274 24.3958 10.4525 24.4402C10.4776 24.4846 10.5116 24.5234 10.5523 24.554C10.8441 24.7507 11.1403 24.9592 11.4605 25.1032C12.9193 25.7614 14.3848 26.3962 15.8531 27.028C15.9707 27.062 16.0967 27.0521 16.2076 27.0002C17.2682 26.5468 18.3324 26.0985 19.3799 25.6159C20.0626 25.3014 20.7198 24.9314 21.3895 24.5869C21.5353 24.5138 21.5813 24.3968 21.5784 24.2315C21.5682 23.6845 21.5747 23.1346 21.5747 22.5905V19.3055ZM15.9851 16.4827H10.1497C9.58586 16.4827 9.46842 16.6041 9.46769 17.1789C9.46769 17.3329 9.46769 17.4877 9.46769 17.6432C9.46769 18.2283 9.59096 18.3541 10.1672 18.3541H21.8125C21.8672 18.3541 21.9212 18.3541 21.9759 18.3541C22.3275 18.3387 22.4938 18.1785 22.5062 17.8312C22.5142 17.6118 22.5062 17.3924 22.5062 17.173C22.5062 16.6026 22.3859 16.4812 21.8198 16.4812L15.9851 16.4827ZM16.9173 11.3328C16.9173 10.8868 16.921 10.4399 16.9173 9.99384C16.913 9.6589 16.7496 9.48997 16.4148 9.48193C16.123 9.47242 15.8312 9.47169 15.5394 9.48193C15.2221 9.49436 15.0595 9.66548 15.0573 9.98725C15.0529 10.8897 15.0529 11.7916 15.0573 12.6931C15.0573 13.0221 15.2338 13.205 15.5591 13.2137C15.8312 13.2233 16.1048 13.2203 16.3768 13.2137C16.7415 13.2064 16.9115 13.0331 16.9151 12.6726C16.9203 12.2265 16.9173 11.7804 16.9173 11.3328ZM12.249 10.4312H10.4254V11.7899H12.249V10.4312ZM19.7264 11.7892H21.5499V10.4304H19.7264V11.7892ZM10.8733 13.6576H11.7683V12.756H10.8733V13.6576ZM20.1998 12.7552V13.6533H21.0999V12.7552H20.1998ZM11.7916 9.46072C11.7632 9.15138 11.9011 8.80913 11.5728 8.62996C11.4943 8.59463 11.409 8.57698 11.3229 8.57824C11.2368 8.57951 11.1521 8.59966 11.0746 8.63728C10.7595 8.82303 10.874 9.15504 10.8704 9.46072H11.7916ZM21.1115 9.46072C21.0977 9.15211 21.2173 8.81279 20.8927 8.63435C20.8142 8.59889 20.7289 8.58092 20.6428 8.58167C20.5566 8.58243 20.4717 8.6019 20.3938 8.63874C20.0721 8.82522 20.2107 9.16235 20.1881 9.46072H21.1115Z"/>
</mask>
<path d="M6.6645 13.194C6.6645 11.1147 6.6645 9.03535 6.6645 6.95602C6.6645 6.24739 6.95627 5.92708 7.65141 5.82616C10.0447 5.47879 12.427 5.07804 14.7436 4.35771C14.9628 4.29844 15.1779 4.22516 15.3877 4.13832C15.7853 3.95696 16.1602 3.97963 16.5709 4.12881C18.4054 4.79576 20.3135 5.17018 22.2305 5.50073C22.9468 5.62432 23.6667 5.7289 24.3859 5.83347C24.9855 5.9205 25.3058 6.27225 25.3087 6.88508C25.3138 7.98861 25.3087 9.09215 25.3087 10.1964C25.3087 13.0485 25.3203 15.9057 25.305 18.7599C25.2919 21.2866 24.3342 23.3964 22.3749 24.9943C21.7914 25.4711 21.1072 25.8484 20.4222 26.1738C19.1428 26.7794 17.8298 27.3096 16.5322 27.8844C16.3604 27.9664 16.1723 28.0086 15.982 28.0077C15.7917 28.0068 15.604 27.9629 15.433 27.8792C14.1309 27.2942 12.807 26.7567 11.5145 26.1592C8.38668 24.7164 6.7637 22.2468 6.67325 18.8031C6.62365 16.9346 6.6645 15.0639 6.6645 13.194ZM24.3772 6.78197C23.8338 6.6986 23.3305 6.6262 22.8286 6.54357C20.5674 6.17426 18.3171 5.75522 16.1507 4.97858C16.0413 4.94237 15.9231 4.94237 15.8137 4.97858C14.4526 5.47587 13.0499 5.82177 11.6312 6.09601C10.3029 6.35343 8.96657 6.56916 7.61056 6.80683C7.60692 6.8668 7.59743 6.94724 7.59743 7.02622C7.59743 10.9577 7.59743 14.8892 7.59743 18.8206C7.58562 20.4605 8.15569 22.0512 9.20582 23.3086C9.27074 23.3869 9.34223 23.46 9.42028 23.5463C9.44508 23.4922 9.45894 23.4732 9.45894 23.4607C9.45894 22.0925 9.46477 20.7242 9.45529 19.3559C9.45529 19.2762 9.36338 19.1695 9.28606 19.1241C8.836 18.8608 8.57341 18.4798 8.53767 17.954C8.51943 17.6908 8.52818 17.4253 8.52818 17.1606C8.52818 16.0848 9.06796 15.54 10.1329 15.5386H10.8346V14.6244C10.1782 14.4906 9.92504 14.1776 9.92431 13.518C9.92431 13.281 9.93525 13.0426 9.91847 12.8071C9.91209 12.7045 9.87032 12.6073 9.80031 12.5322C9.69381 12.4385 9.60889 12.3228 9.55146 12.193C9.49402 12.0632 9.46544 11.9224 9.46769 11.7804C9.46769 11.3248 9.44289 10.8663 9.47863 10.4129C9.49468 10.2001 9.57345 9.94191 9.71788 9.8015C9.90899 9.61502 9.94546 9.43074 9.92942 9.19818C9.92358 9.10711 9.92358 9.01575 9.92942 8.92468C9.94828 8.58862 10.0872 8.27062 10.3209 8.02889C10.5545 7.78715 10.8671 7.63786 11.2015 7.60834C11.526 7.57507 11.8517 7.65956 12.1194 7.84648C12.3871 8.03339 12.579 8.31034 12.6604 8.62704C12.7209 8.86983 12.691 9.13383 12.7231 9.38539C12.7334 9.49566 12.7786 9.59972 12.8522 9.6823C12.9621 9.78019 13.0497 9.90071 13.1088 10.0356C13.168 10.1706 13.1974 10.3167 13.1951 10.4641C13.1951 10.8926 13.2162 11.3233 13.187 11.7497C13.1725 11.9581 13.128 12.2323 12.9894 12.3501C12.6976 12.5995 12.7166 12.8934 12.7209 13.2079C12.7209 13.3812 12.7253 13.5553 12.7173 13.7279C12.709 13.9301 12.6344 14.1239 12.505 14.2793C12.3756 14.4346 12.1987 14.5429 12.0017 14.5871L11.8092 14.6332V15.5217H15.503V14.1644L15.3571 14.1374C14.5547 13.9787 14.128 13.4639 14.1265 12.6463C14.1265 11.7343 14.1192 10.818 14.1265 9.90974C14.1254 9.56796 14.2536 9.23848 14.4852 8.98769C14.7168 8.7369 15.0346 8.58346 15.3746 8.55829C15.7827 8.52575 16.1927 8.52575 16.6008 8.55829C16.9361 8.58462 17.2495 8.73595 17.479 8.98247C17.7085 9.22898 17.8376 9.55277 17.8408 9.88999C17.8525 10.8568 17.851 11.8243 17.8408 12.7911C17.8345 13.0806 17.7373 13.3608 17.563 13.5918C17.3887 13.8227 17.1462 13.9927 16.8699 14.0774C16.7415 14.1169 16.6081 14.1374 16.4768 14.1674V15.5276H20.1815C20.1815 15.287 20.175 15.061 20.1815 14.8358C20.1874 14.6895 20.156 14.6164 19.986 14.582C19.5374 14.4935 19.2632 14.1476 19.2508 13.6906C19.2428 13.398 19.2603 13.1055 19.242 12.813C19.2314 12.703 19.1838 12.5998 19.1071 12.5205C19.0029 12.4253 18.9198 12.3093 18.8631 12.1799C18.8064 12.0506 18.7775 11.9107 18.7781 11.7694C18.7781 11.3226 18.7511 10.8729 18.789 10.4297C18.805 10.196 18.8938 9.97314 19.0429 9.79273C19.1203 9.72023 19.1798 9.63053 19.2164 9.53083C19.253 9.43113 19.2658 9.32421 19.2537 9.21866C19.2479 9.12758 19.2479 9.03623 19.2537 8.94515C19.2821 8.23652 19.8095 7.68659 20.5309 7.61273C20.8601 7.58266 21.1891 7.6729 21.4572 7.86682C21.7253 8.06075 21.9144 8.34528 21.9898 8.66799C22.0295 8.88278 22.0459 9.10125 22.0386 9.31958C22.0386 9.4907 22.0569 9.62453 22.2108 9.74373C22.4296 9.91559 22.5026 10.1745 22.5026 10.4516C22.5026 10.8904 22.5208 11.3292 22.4945 11.7643C22.4821 11.9647 22.4435 12.2367 22.3107 12.3406C21.9898 12.5921 22.0452 12.9066 22.0408 13.2262C22.0408 13.39 22.0474 13.5545 22.0408 13.7183C22.032 13.9253 21.9547 14.1233 21.821 14.2812C21.6873 14.4391 21.5049 14.5478 21.3027 14.5901C21.2436 14.6032 21.1845 14.6186 21.1283 14.6325V15.5612C21.493 15.5612 21.849 15.5364 22.1984 15.5663C22.515 15.591 22.8123 15.7285 23.0364 15.9541C23.2606 16.1796 23.3967 16.4782 23.4202 16.7957C23.4497 17.2049 23.4497 17.6157 23.4202 18.025C23.4086 18.2497 23.3373 18.4673 23.2137 18.6552C23.0901 18.843 22.9186 18.9943 22.717 19.0934C22.5376 19.1877 22.5048 19.2996 22.5055 19.4788C22.5113 20.7374 22.5055 21.9967 22.5055 23.2552C22.5055 23.343 22.5135 23.4307 22.5215 23.5843C22.6251 23.4673 22.6915 23.3986 22.7513 23.3247C23.8454 21.9901 24.3728 20.4529 24.3735 18.7307C24.3735 14.8445 24.3735 10.9587 24.3735 7.07303L24.3772 6.78197ZM21.5747 19.3055H10.4196C10.4113 19.3453 10.4055 19.3856 10.4021 19.4261C10.4021 21.0496 10.4021 22.6724 10.4065 24.2959C10.4117 24.3466 10.4274 24.3958 10.4525 24.4402C10.4776 24.4846 10.5116 24.5234 10.5523 24.554C10.8441 24.7507 11.1403 24.9592 11.4605 25.1032C12.9193 25.7614 14.3848 26.3962 15.8531 27.028C15.9707 27.062 16.0967 27.0521 16.2076 27.0002C17.2682 26.5468 18.3324 26.0985 19.3799 25.6159C20.0626 25.3014 20.7198 24.9314 21.3895 24.5869C21.5353 24.5138 21.5813 24.3968 21.5784 24.2315C21.5682 23.6845 21.5747 23.1346 21.5747 22.5905V19.3055ZM15.9851 16.4827H10.1497C9.58586 16.4827 9.46842 16.6041 9.46769 17.1789C9.46769 17.3329 9.46769 17.4877 9.46769 17.6432C9.46769 18.2283 9.59096 18.3541 10.1672 18.3541H21.8125C21.8672 18.3541 21.9212 18.3541 21.9759 18.3541C22.3275 18.3387 22.4938 18.1785 22.5062 17.8312C22.5142 17.6118 22.5062 17.3924 22.5062 17.173C22.5062 16.6026 22.3859 16.4812 21.8198 16.4812L15.9851 16.4827ZM16.9173 11.3328C16.9173 10.8868 16.921 10.4399 16.9173 9.99384C16.913 9.6589 16.7496 9.48997 16.4148 9.48193C16.123 9.47242 15.8312 9.47169 15.5394 9.48193C15.2221 9.49436 15.0595 9.66548 15.0573 9.98725C15.0529 10.8897 15.0529 11.7916 15.0573 12.6931C15.0573 13.0221 15.2338 13.205 15.5591 13.2137C15.8312 13.2233 16.1048 13.2203 16.3768 13.2137C16.7415 13.2064 16.9115 13.0331 16.9151 12.6726C16.9203 12.2265 16.9173 11.7804 16.9173 11.3328ZM12.249 10.4312H10.4254V11.7899H12.249V10.4312ZM19.7264 11.7892H21.5499V10.4304H19.7264V11.7892ZM10.8733 13.6576H11.7683V12.756H10.8733V13.6576ZM20.1998 12.7552V13.6533H21.0999V12.7552H20.1998ZM11.7916 9.46072C11.7632 9.15138 11.9011 8.80913 11.5728 8.62996C11.4943 8.59463 11.409 8.57698 11.3229 8.57824C11.2368 8.57951 11.1521 8.59966 11.0746 8.63728C10.7595 8.82303 10.874 9.15504 10.8704 9.46072H11.7916ZM21.1115 9.46072C21.0977 9.15211 21.2173 8.81279 20.8927 8.63435C20.8142 8.59889 20.7289 8.58092 20.6428 8.58167C20.5566 8.58243 20.4717 8.6019 20.3938 8.63874C20.0721 8.82522 20.2107 9.16235 20.1881 9.46072H21.1115Z" fill="#774AD6" stroke="white" stroke-width="0.2" mask="url(#path-2-inside-1_47_21)"/>
<path d="M15.936 20.3226H15.2352C15.2297 20.4351 15.2251 20.536 15.221 20.6346L15.2176 20.7148L15.1387 20.7289C14.7312 20.8018 14.4137 20.953 14.2019 21.1612C13.9926 21.3671 13.8813 21.6337 13.8913 21.9535C13.9117 22.242 14.0014 22.5213 14.1527 22.7679L14.1534 22.7691L14.1534 22.7691C14.3523 23.1036 14.7142 23.2351 15.1215 23.2739L15.212 23.2825V23.3735V24.2478V24.2983L15.1715 24.3282L15.0961 24.384L15.0248 24.4367L14.964 24.3723L14.541 23.925H13.8611C13.8783 23.9714 13.8948 24.0173 13.9107 24.0618C13.9274 24.1084 13.9436 24.1536 13.9596 24.1963C14.0071 24.3233 14.0554 24.4366 14.1189 24.5375L15.936 20.3226ZM15.936 20.3226V20.6184V20.6981L16.0136 20.7159C16.4563 20.8173 16.7679 20.9706 16.97 21.177C17.1496 21.3604 17.2502 21.5933 17.273 21.8903H16.5763C16.5455 21.7963 16.5015 21.7053 16.433 21.6312C16.3434 21.5343 16.2198 21.4749 16.0546 21.4653L15.9488 21.4591V21.5651V22.435V22.518L16.0303 22.5333C16.4554 22.6131 16.7734 22.7737 16.9826 22.994C17.1903 23.2127 17.298 23.4979 17.2906 23.8439L17.2906 23.8439C17.2836 24.1728 17.1636 24.4519 16.9519 24.6632C16.7393 24.8754 16.4288 25.0245 16.0338 25.0813L15.9524 25.093L15.9482 25.1751C15.9428 25.2792 15.9375 25.3861 15.9317 25.5016H15.2392V25.1833V25.092L15.1483 25.0837C14.7048 25.0431 14.3405 24.8896 14.1189 24.5376L15.936 20.3226ZM15.1065 22.5384L15.2211 22.5554V22.4395V21.5666V21.4575L15.1124 21.467C14.9579 21.4805 14.829 21.5301 14.7358 21.6236C14.6425 21.7171 14.5962 21.8431 14.5847 21.9868C14.5726 22.1389 14.615 22.2697 14.714 22.3674C14.8095 22.4619 14.9472 22.5149 15.1065 22.5384ZM15.9488 24.269V24.391L16.0685 24.367C16.2205 24.3364 16.3512 24.2795 16.4435 24.1839C16.5382 24.0859 16.5825 23.9576 16.5794 23.8064C16.5764 23.6582 16.5325 23.5302 16.4383 23.4346C16.3454 23.3403 16.2148 23.2891 16.0608 23.2704L15.9488 23.2568V23.3697V24.269Z" fill="#774AD6" stroke="white" stroke-width="0.2"/>
</g>
<defs>
<clipPath id="clip0_47_21">
<rect width="22.4" height="28" fill="white" transform="translate(4.80005 2)"/>
</clipPath>
</defs>
</svg>
