<svg width="24" height="24" viewBox="0 0 24 24" fill="none" xmlns="http://www.w3.org/2000/svg">
<g clip-path="url(#clip0_47_52)">
<path d="M1.55157 11.6098C1.70155 8.87999 2.69908 6.53271 4.62301 4.61315C6.54694 2.69359 8.88074 1.70183 11.6134 1.55452C11.6134 1.19529 11.6134 0.843807 11.6134 0.492329C11.6134 0.140851 11.7492 0.001294 12.1131 0.0019401C17.6464 0.0155082 22.5267 3.96963 23.7156 9.40204C24.3507 12.2639 23.9156 15.2591 22.4923 17.8222C21.069 20.3853 18.7561 22.339 15.9901 23.3145C9.33134 25.6799 2.00928 21.7199 0.345235 14.8506C0.124213 13.95 0.00900846 13.0267 0.00195312 12.0995C0.00195313 11.7506 0.13448 11.613 0.479055 11.6104C0.82363 11.6078 1.18372 11.6098 1.55157 11.6098ZM4.90423 18.5314C4.94431 18.4952 4.98698 18.4597 5.02576 18.4216C7.18071 16.2679 9.33414 14.1127 11.4861 11.9561C11.5626 11.8695 11.6063 11.7588 11.6095 11.6434C11.616 8.62177 11.6175 5.59996 11.6141 2.57794C11.6141 2.49976 11.6076 2.42158 11.6044 2.3434C8.23555 2.42804 4.48401 4.54014 2.94926 8.56792C1.51537 12.3327 2.69843 16.2856 4.90423 18.5314ZM12.4034 11.5891H23.2158C22.9844 5.37296 17.8287 0.888388 12.4021 0.799226L12.4034 11.5891ZM15.4878 21.0163C16.6025 20.588 17.627 19.9547 18.5082 19.1491L12.0013 12.6422L5.49188 19.1465C6.37372 19.953 7.39999 20.5858 8.51677 21.0118C8.51677 20.095 8.51677 19.2169 8.51677 18.3389C8.51677 17.9234 8.63572 17.8026 9.04365 17.802H10.0651V17.508C10.0651 16.7327 10.0651 15.9606 10.0651 15.1872C10.0651 14.8409 10.2015 14.7078 10.5506 14.7059C10.9941 14.7059 11.4376 14.7059 11.8811 14.7059C12.2593 14.7059 12.386 14.8351 12.3873 15.215C12.3873 15.5581 12.3873 15.9011 12.3873 16.2539C12.7609 16.2539 13.0984 16.2539 13.4371 16.2539C13.8018 16.2539 13.9336 16.3831 13.9356 16.7475C13.9356 17.0913 13.9356 17.4356 13.9356 17.802H14.5821C15.4839 17.802 15.4839 17.802 15.4839 18.6904V21.0163H15.4878ZM13.0247 12.3922L19.1482 18.5159C20.6997 16.7876 21.5486 14.7498 21.6694 12.3922H13.0247ZM0.79066 12.3922C0.958099 18.4959 6.30903 23.7635 13.0131 23.1665C19.1831 22.6148 23.1628 17.3361 23.1919 12.3999H22.4588C22.2843 17.7031 18.0091 22.1722 12.5088 22.4339C10.0302 22.5521 7.76556 21.8789 5.77956 20.3851C3.12899 18.3906 1.75586 15.6957 1.54381 12.3922H0.79066ZM11.5979 21.6682V15.4993H10.8512V21.6017L11.5979 21.6682ZM13.1462 21.6036V17.0473H12.3892V21.6656L13.1462 21.6036ZM13.9556 18.587V21.4776L14.7004 21.2909V18.5876L13.9556 18.587ZM10.0483 21.4776V18.5876H9.30289V21.289L10.0483 21.4776Z" fill="#774AD6"/>
<path d="M8.08083 7.4194H7.41041C7.40502 7.5297 7.40056 7.62662 7.3966 7.72104L7.39492 7.7611L7.35545 7.76816C7.00125 7.83154 6.72174 7.96352 6.53376 8.14839C6.34695 8.3321 6.24784 8.57052 6.25684 8.85481C6.27469 9.10805 6.35334 9.35327 6.48613 9.56971L6.48649 9.5703L6.48648 9.5703C6.66569 9.87162 6.9902 9.98665 7.34363 10.0203L7.38889 10.0246V10.0701V10.8196V10.8448L7.36862 10.8598L7.30397 10.9076L7.26835 10.9339L7.23791 10.9017L6.86481 10.5071H6.21505C6.23637 10.5628 6.25609 10.6178 6.27515 10.671C6.28956 10.7112 6.30359 10.7503 6.31765 10.7879L8.08083 7.4194ZM8.08083 7.4194V7.7086V7.74845L8.11967 7.75734C8.50264 7.84505 8.77706 7.97872 8.95695 8.16242C9.12548 8.33452 9.21516 8.55477 9.22922 8.8345H8.56768C8.54189 8.74789 8.50478 8.66568 8.44496 8.601C8.37505 8.52541 8.27807 8.47796 8.14473 8.47019L8.09182 8.4671V8.5201V9.2657V9.30718L8.13259 9.31484C8.50204 9.38425 8.78225 9.52449 8.96813 9.72025C9.15325 9.91523 9.24846 10.1691 9.24192 10.4741V10.4741C9.23572 10.7648 9.12938 11.0129 8.9411 11.2008C8.75239 11.3892 8.47862 11.5198 8.13406 11.5693L8.09335 11.5752L8.09124 11.6162C8.08613 11.7155 8.08102 11.8178 8.07548 11.93H7.41216V11.6214V11.5757L7.36672 11.5716C6.98037 11.5362 6.65547 11.4016 6.45738 11.0869L8.08083 7.4194ZM7.33933 9.31904L7.39665 9.32752V9.26958V8.52139V8.46685L7.3423 8.47158C7.21564 8.48262 7.11402 8.52293 7.04167 8.59543C6.96929 8.66796 6.93187 8.76702 6.92249 8.8844C6.91278 9.00591 6.9466 9.10713 7.02277 9.18239C7.09726 9.25599 7.2069 9.29946 7.33933 9.31904ZM8.09182 10.8377V10.8987L8.15167 10.8867C8.27791 10.8613 8.3822 10.8148 8.45448 10.7399C8.52794 10.6639 8.56344 10.5637 8.56095 10.4419C8.55849 10.3216 8.52306 10.2215 8.45025 10.1476C8.37804 10.0743 8.27479 10.0326 8.14783 10.0172L8.09182 10.0104V10.0669V10.8377Z" fill="#774AD6" stroke="white" stroke-width="0.1"/>
<path d="M15.5304 7.78237L15.4925 7.75481L15.4105 7.69526L15.4093 7.69433L15.4093 7.69431C15.3032 7.61195 15.2086 7.57443 15.1258 7.5735C15.0447 7.57258 14.9672 7.60668 14.8935 7.68424C14.821 7.76056 14.7908 7.8461 14.798 7.93384C14.8052 8.02277 14.8514 8.12004 14.9434 8.21641L14.9435 8.21653C15.0397 8.31791 15.1381 8.41679 15.2388 8.51318L15.2389 8.51327C15.3571 8.627 15.4621 8.67335 15.5577 8.66815C15.6535 8.66294 15.7544 8.60529 15.8626 8.47752C16.0698 8.23258 16.2745 7.98532 16.4793 7.73793C16.5678 7.63101 16.6563 7.52406 16.7451 7.41727L15.5304 7.78237ZM15.5304 7.78237L15.5603 7.74633M15.5304 7.78237L15.5603 7.74633M15.5603 7.74633L17.1376 5.84849C17.1376 5.84845 17.1376 5.84841 17.1377 5.84838M15.5603 7.74633L17.1377 5.84838M17.8277 6.18741C17.9896 5.98808 17.954 5.74362 17.7827 5.60572C17.6114 5.46782 17.39 5.49352 17.22 5.67342C17.1908 5.7048 17.1637 5.73796 17.1366 5.77106C17.1242 5.78622 17.1119 5.80137 17.0993 5.81633L17.8277 6.18741ZM17.8277 6.18741C17.5777 6.49699 17.3225 6.80289 17.0672 7.10878M17.8277 6.18741L17.0672 7.10878M17.1377 5.84838C17.1512 5.83232 17.164 5.81662 17.1766 5.80121C17.203 5.76883 17.2284 5.73777 17.2564 5.70761C17.3349 5.62471 17.4224 5.58009 17.5068 5.57004C17.5907 5.56004 17.6755 5.58367 17.7513 5.64467C17.9005 5.76472 17.9338 5.97746 17.7889 6.15589L17.7888 6.156C17.5391 6.46523 17.2842 6.77067 17.0291 7.07645C16.9344 7.18993 16.8396 7.30347 16.7451 7.41726L17.1377 5.84838ZM17.0672 7.10878C16.9726 7.2222 16.8779 7.33562 16.7836 7.44922L17.0672 7.10878Z" fill="#774AD6" stroke="#774AD6" stroke-width="0.1"/>
</g>
<defs>
<clipPath id="clip0_47_52">
<rect width="24" height="24" fill="white"/>
</clipPath>
</defs>
</svg>
