<svg width="24" height="24" viewBox="0 0 24 24" fill="none" xmlns="http://www.w3.org/2000/svg">
<path d="M14.2212 12C14.2212 13.2267 13.2267 14.2212 12 14.2212C10.7733 14.2212 9.77881 13.2267 9.77881 12C9.77881 10.7733 10.7733 9.77881 12 9.77881C13.2267 9.77881 14.2212 10.7733 14.2212 12Z" stroke="#16142D" stroke-width="1.8" stroke-linecap="round" stroke-linejoin="round"/>
<path d="M21.9953 12C21.9953 13.2267 21.0009 14.2212 19.7742 14.2212C18.5474 14.2212 17.553 13.2267 17.553 12C17.553 10.7733 18.5474 9.77881 19.7742 9.77881C21.0009 9.77881 21.9953 10.7733 21.9953 12Z" stroke="#16142D" stroke-width="1.8" stroke-linecap="round" stroke-linejoin="round"/>
<path d="M6.44703 12C6.44703 13.2267 5.45257 14.2212 4.22584 14.2212C2.99911 14.2212 2.00465 13.2267 2.00465 12C2.00465 10.7733 2.99911 9.77881 4.22584 9.77881C5.45257 9.77881 6.44703 10.7733 6.44703 12Z" stroke="#16142D" stroke-width="1.8" stroke-linecap="round" stroke-linejoin="round"/>
</svg>
