<svg width="22" height="22" viewBox="0 0 22 22" fill="none" xmlns="http://www.w3.org/2000/svg">
<path d="M11 17.6667V21M6.55556 17.6667V21H15.4444V17.6667M12.6667 13.2222L11 11.5556L9.33333 13.2222M6.55556 18.7778H4.71407C2.44852 16.9445 1 14.1414 1 11C1 5.47715 5.47715 1 11 1C16.5228 1 21 5.47715 21 11C21 14.1414 19.5515 16.9445 17.2859 18.7778H15.4444M8.77778 7.66667C8.77778 8.28032 8.28032 8.77778 7.66667 8.77778C7.05302 8.77778 6.55556 8.28032 6.55556 7.66667C6.55556 7.05302 7.05302 6.55556 7.66667 6.55556C8.28032 6.55556 8.77778 7.05302 8.77778 7.66667ZM15.4444 7.66667C15.4444 8.28032 14.947 8.77778 14.3333 8.77778C13.7197 8.77778 13.2222 8.28032 13.2222 7.66667C13.2222 7.05302 13.7197 6.55556 14.3333 6.55556C14.947 6.55556 15.4444 7.05302 15.4444 7.66667Z" stroke="#58566C" stroke-width="1.8" stroke-linecap="round" stroke-linejoin="round"/>
</svg>
