<svg width="24" height="24" viewBox="0 0 24 24" fill="none" xmlns="http://www.w3.org/2000/svg">
<g clip-path="url(#clip0_47_173)">
<path d="M17.3912 -2.35136e-06C17.8565 0.142291 18.2226 0.396315 18.3483 0.895845C18.3823 1.04807 18.3977 1.20387 18.3939 1.3598C18.3966 3.7504 18.3966 6.14066 18.3939 8.53059C18.3952 8.60848 18.3907 8.68636 18.3804 8.76357C18.3473 8.97451 18.2021 9.10528 18.0002 9.10277C17.7834 9.09977 17.6496 8.98754 17.6126 8.77259C17.5981 8.67307 17.5917 8.57253 17.5936 8.47197C17.5936 6.12045 17.5936 3.76927 17.5936 1.41842C17.5936 0.909874 17.4859 0.803154 16.974 0.803154H1.42243C0.918567 0.803154 0.806878 0.916388 0.806878 1.42694V22.5851C0.806878 23.0921 0.917065 23.2014 1.42894 23.2014H16.983C17.4889 23.2014 17.5961 23.0926 17.5961 22.5801C17.5961 21.3926 17.5961 20.2053 17.5961 19.0182C17.5939 18.9401 17.5972 18.8619 17.6061 18.7842C17.6396 18.5427 17.7879 18.4075 18.0068 18.4115C18.2256 18.4155 18.3789 18.5578 18.3889 18.8008C18.4034 19.1515 18.3969 19.5022 18.3969 19.8529C18.3969 20.7825 18.3969 21.7119 18.3969 22.6412C18.3944 23.5255 17.9191 23.9975 17.0331 23.9975H1.38587C0.475812 23.9975 0.00901503 23.5255 0.00901503 22.6066C0.00901503 15.5841 0.00601027 8.56199 0 1.54017C0 0.774595 0.238408 0.237487 0.992696 -0.00200653L17.3912 -2.35136e-06Z" fill="#774AD6"/>
<path d="M23.6009 6.98103L23.6165 6.94733C23.6606 6.85228 23.7035 6.75997 23.7456 6.66938C23.8161 6.5175 23.8844 6.37048 23.9524 6.22354L23.9491 5.82095C23.9448 5.80927 23.9404 5.79737 23.936 5.78533C23.9229 5.74981 23.9093 5.71306 23.8978 5.67691L23.8975 5.67609L23.8975 5.67609C23.8134 5.39672 23.6266 5.15965 23.3747 5.01269C23.1227 4.86574 22.8244 4.81983 22.54 4.88424L22.5396 4.88433C22.1472 4.9697 21.899 5.23527 21.7021 5.58493C21.7021 5.58496 21.7021 5.58498 21.702 5.58501L21.6585 5.56047C21.6194 5.63012 21.5147 5.71379 21.4476 5.70777L23.6009 6.98103ZM23.6009 6.98103L23.6287 7.00573M23.6009 6.98103L23.6287 7.00573M23.6287 7.00573C23.7452 7.10946 23.7805 7.21292 23.7729 7.31871C23.7649 7.42904 23.71 7.54795 23.6316 7.67865L23.6315 7.67868M23.6287 7.00573L23.6315 7.67868M23.6315 7.67868C23.4187 8.03353 23.2133 8.39239 23.0046 8.7568C22.9184 8.9074 22.8316 9.05895 22.7436 9.21157L22.719 9.25413M23.6315 7.67868L22.719 9.25413M22.719 9.25413L22.7612 9.27942M22.719 9.25413L22.7612 9.27942M22.7612 9.27942C22.7772 9.28902 22.7929 9.29845 22.8084 9.30775C22.8998 9.36261 22.9835 9.41276 23.0667 9.46401L23.0668 9.46409M22.7612 9.27942L23.0668 9.46409M23.0668 9.46409C23.3682 9.64838 23.5634 9.89973 23.642 10.1785C23.7205 10.457 23.6839 10.7674 23.5131 11.073C23.104 11.8044 22.6825 12.5289 22.2608 13.2538C22.1608 13.4258 22.0607 13.5977 21.9608 13.7698C21.8939 13.8849 21.8108 13.9552 21.7256 13.9852C21.6413 14.015 21.5499 14.0071 21.4606 13.9568L21.4606 13.9568M23.0668 9.46409L21.4606 13.9568M21.4606 13.9568C21.3663 13.9038 21.3121 13.8288 21.2958 13.7401C21.2793 13.65 21.3006 13.5391 21.3718 13.4144L21.3718 13.4144C21.7027 12.8347 22.036 12.2565 22.3694 11.6781C22.5113 11.4318 22.6533 11.1855 22.7952 10.939M21.4606 13.9568L22.7952 10.939M22.7952 10.939C22.8732 10.8034 22.93 10.6875 22.9602 10.5857C22.9907 10.4832 22.9953 10.3912 22.9646 10.3061C22.934 10.2214 22.8709 10.1508 22.7802 10.0858C22.6899 10.0209 22.5686 9.95894 22.4162 9.89265L22.3763 9.87532L22.3536 9.91237C22.3419 9.93141 22.3299 9.95081 22.3177 9.97049C22.2866 10.0206 22.2544 10.0726 22.2242 10.125L22.2242 10.125C21.9536 10.5948 21.6819 11.064 21.4103 11.5333C20.7203 12.7251 20.0302 13.9171 19.357 15.1188L19.4006 15.1432L19.357 15.1188C19.0494 15.668 18.6648 16.151 18.2751 16.6404C18.1989 16.736 18.1226 16.8319 18.0466 16.9286L18.0465 16.9286C17.6952 17.3765 17.3605 17.8377 17.0426 18.312L17.0426 18.312C16.8929 18.5358 16.7234 18.7015 16.5257 18.8058C16.3284 18.91 16.0998 18.9547 15.8288 18.9313L15.8288 18.9311L15.8235 18.9312C15.7703 18.9322 15.7178 18.9442 15.6694 18.9663C15.6209 18.9885 15.5775 19.0203 15.5419 19.0599L15.5419 19.0599L15.5408 19.0612C15.3886 19.2425 15.2408 19.4306 15.0937 19.618C14.9843 19.7572 14.8753 19.896 14.765 20.0313L14.765 20.0313C14.5427 20.3042 14.2683 20.4105 14.0205 20.3746C13.7727 20.3388 13.5397 20.1591 13.4039 19.8357C13.3606 19.7318 13.3185 19.6279 13.2734 19.5162C13.2472 19.4514 13.2199 19.384 13.1907 19.3125L13.1578 19.2319L13.1048 19.3009C13.0881 19.3226 13.072 19.3427 13.0567 19.3617C13.0288 19.3964 13.0036 19.4278 12.9826 19.4596L13.0242 19.4872M22.7952 10.939L18.0859 16.9595C17.7353 17.4064 17.4014 17.8665 17.0842 18.3398C16.7781 18.7973 16.383 19.0293 15.8245 18.9812C15.7781 18.9821 15.7324 18.9925 15.6902 19.0118C15.6479 19.0311 15.6101 19.0589 15.5791 19.0934C15.4268 19.2747 15.2805 19.461 15.1341 19.6474C15.0248 19.7866 14.9155 19.9258 14.8038 20.0629C14.3415 20.6306 13.6403 20.5278 13.3578 19.855C13.3143 19.7509 13.2721 19.6464 13.2269 19.5346C13.2073 19.4862 13.1872 19.4365 13.1662 19.3848C13.1719 19.3776 13.1779 19.3699 13.1841 19.3619L13.1444 19.3314L13.0981 19.3503C13.1017 19.3591 13.1053 19.3679 13.1089 19.3766C13.1036 19.3832 13.0985 19.3895 13.0935 19.3957C13.0669 19.4289 13.0442 19.4571 13.0242 19.4872M13.0242 19.4872C12.7848 19.8419 12.4533 19.9957 12.1122 19.9081M13.0242 19.4872L12.9828 19.4592C12.7519 19.8014 12.44 19.9407 12.1247 19.8596L12.1122 19.9081M12.1122 19.9081C11.745 19.8134 11.5257 19.5122 11.4916 19.0678L12.1246 19.8596M12.1122 19.9081L12.1246 19.8596M11.3308 17.7105C11.3362 17.7419 11.3414 17.7733 11.3466 17.8047C11.3478 17.8017 11.3491 17.7986 11.3503 17.7956C11.3592 17.774 11.3683 17.7519 11.3774 17.7288L11.3308 17.7105ZM11.3308 17.7105L11.2815 17.7189C11.2861 17.7455 11.2905 17.7722 11.2949 17.7988C11.2983 17.7906 11.3016 17.7825 11.305 17.7743C11.3137 17.7531 11.3225 17.7319 11.3308 17.7105ZM11.2542 17.9064L11.2068 17.8907L11.2542 17.9064ZM11.2542 17.9064L11.2067 17.8907L11.2542 17.9064ZM20.1158 7.42281C20.0908 7.46559 20.0631 7.50704 20.0359 7.54759C20.0224 7.56783 20.009 7.58784 19.9961 7.60769C19.4212 7.34315 19.2494 7.33513 19.1101 7.57212C18.9709 7.80911 19.0661 7.96243 19.5864 8.32968C19.567 8.36326 19.5476 8.39845 19.528 8.43404C19.5066 8.47279 19.4849 8.51201 19.4627 8.55014L19.506 8.57513C18.4529 10.3995 17.4012 12.2245 16.3508 14.0502L19.5059 8.57529C19.5276 8.53815 19.5486 8.5001 19.5691 8.46295L19.5716 8.45843C19.5913 8.42268 19.6105 8.38787 19.6297 8.35472L19.6526 8.31517L19.6153 8.28883C19.3539 8.10441 19.2086 7.97956 19.1433 7.87548C19.1119 7.82541 19.1006 7.78251 19.1026 7.74119C19.1046 7.69887 19.1207 7.6529 19.1532 7.59745C19.186 7.54175 19.2179 7.50521 19.2533 7.48267C19.2878 7.46073 19.3297 7.4494 19.3877 7.45179C19.5084 7.45677 19.6863 7.52017 19.9752 7.65312L20.0146 7.67122L20.0381 7.63485C20.0501 7.61636 20.063 7.59705 20.0763 7.57716C20.1039 7.53588 20.1332 7.49213 20.159 7.44812L20.1158 7.42281ZM20.1158 7.42281L20.159 7.44808L20.1158 7.42281ZM12.1246 19.8596C11.7831 19.7715 11.5744 19.4926 11.5415 19.0643L12.1246 19.8596ZM21.1792 5.81104C21.2481 5.76886 21.3325 5.74834 21.4433 5.75759L20.9548 5.98835L20.9981 6.01337C20.9981 6.01337 20.9981 6.01337 20.9981 6.01336C21.0513 5.92131 21.1095 5.85375 21.1792 5.81104ZM21.4361 14.0004C21.2247 13.8816 21.1782 13.6527 21.3284 13.3896C21.6593 12.8098 21.9927 12.2315 22.3261 11.6531C22.4681 11.4068 22.61 11.1605 22.7518 10.914L21.4361 14.0004ZM10.4063 20.4582L10.3589 20.4422C10.3589 20.4422 10.3589 20.4422 10.3589 20.4422L10.4063 20.4582ZM15.0015 18.3721C14.791 17.962 14.8039 17.5638 15.0347 17.1702L11.472 16.8282C11.6326 16.8494 11.7815 16.9232 11.8956 17.0382C12.0097 17.1534 12.0824 17.3032 12.1021 17.4641C12.1482 17.842 12.1803 18.2211 12.2139 18.6174C12.2262 18.7628 12.2387 18.9105 12.2522 19.0613L12.2638 19.1911L12.342 19.0868C12.3736 19.0446 12.4017 19.0061 12.4278 18.9701C12.4753 18.9049 12.5166 18.8482 12.5618 18.7936L12.5619 18.7936L12.5624 18.7929C12.6369 18.6998 12.7331 18.6265 12.8426 18.5793C12.9521 18.5321 13.0714 18.5125 13.1902 18.5223C13.309 18.5321 13.4236 18.5709 13.5239 18.6353C13.6242 18.6998 13.7072 18.7878 13.7655 18.8919L13.7656 18.8921C13.8499 19.041 13.9146 19.1986 13.9834 19.3659C14.0158 19.4449 14.0491 19.5261 14.0859 19.6095L14.1187 19.6843L14.1704 19.621C14.2389 19.5371 14.3069 19.454 14.3745 19.3715C14.5852 19.1144 14.7913 18.8629 14.9919 18.6072L14.9926 18.6077L14.9969 18.5993C15.0149 18.5647 15.0247 18.5264 15.0257 18.4874C15.0267 18.4484 15.0187 18.4096 15.0025 18.3742L15.0026 18.3741L15.0015 18.3721ZM20.3312 8.67521L20.2879 8.65014L20.2629 8.69349C20.0914 8.99064 19.9201 9.28757 19.7488 9.58437C18.8545 11.1342 17.9623 12.6805 17.0644 14.2359L17.0394 14.2792L17.0827 14.3042L18.4681 15.1034L18.5114 15.1284L18.5364 15.0851C19.6037 13.2357 20.662 11.4015 21.7333 9.54412L21.7583 9.50086L21.7151 9.47586L20.3312 8.67521ZM21.5303 6.59995L21.4869 6.57481L21.4619 6.61823L20.663 8.00409L20.6381 8.04737L20.6813 8.07236L22.0647 8.87151L22.108 8.89654L22.133 8.85317L22.9304 7.46932L22.9553 7.42611L22.9122 7.4011L21.5303 6.59995ZM16.9722 17.0111L17.009 17.0327L17.0361 16.9998L18.0708 15.7473L18.1085 15.7017L18.0573 15.6721L16.7991 14.9451L16.748 14.9155L16.7273 14.9709L16.1613 16.4881L16.1466 16.5274L16.1829 16.5487L16.9722 17.0111ZM22.226 6.10119H22.0655L22.227 6.19448L22.9207 6.59531L22.9686 6.62301L22.9913 6.5725C23.0173 6.51449 23.0517 6.4588 23.0879 6.40133C23.0904 6.39731 23.093 6.39327 23.0955 6.38923C23.1288 6.33653 23.1633 6.28179 23.1902 6.22591C23.2194 6.16524 23.2411 6.10018 23.243 6.02981C23.245 5.95867 23.2266 5.88558 23.1809 5.80934L23.1811 5.80924L23.1784 5.80559C23.1307 5.74018 23.0695 5.68584 22.9989 5.64626C22.9284 5.60668 22.8501 5.58281 22.7694 5.57627L22.7694 5.57613L22.7657 5.57611C22.6782 5.57555 22.6065 5.59637 22.5466 5.63341C22.4872 5.67008 22.442 5.72092 22.4046 5.77624C22.3673 5.83118 22.3361 5.89297 22.3062 5.95228L22.3054 5.95382C22.2795 6.00518 22.2544 6.05492 22.226 6.10119ZM15.9085 17.2127L15.864 17.1873L15.8397 17.2323C15.8124 17.2826 15.7813 17.3311 15.7495 17.3807C15.7431 17.3908 15.7366 17.4009 15.7301 17.4111C15.6923 17.4704 15.6548 17.5316 15.6273 17.5948C15.5997 17.6583 15.5814 17.7259 15.5838 17.7981C15.5862 17.8709 15.6095 17.9449 15.6595 18.0211L15.6593 18.0212L15.6623 18.0249C15.7109 18.0855 15.772 18.1349 15.8416 18.1695C15.9111 18.2041 15.9873 18.2232 16.065 18.2255L16.065 18.2256L16.0684 18.2254C16.2431 18.2184 16.3482 18.1315 16.4244 18.0204C16.4616 17.9661 16.4924 17.9055 16.5214 17.8463C16.5259 17.8372 16.5303 17.8282 16.5347 17.8192C16.5594 17.7686 16.5833 17.7196 16.6104 17.6731L16.6359 17.6296L16.5921 17.6045L15.9085 17.2127Z" fill="#774AD6" stroke="white" stroke-width="0.1"/>
<path d="M4.36903 4.05125V4.00125V3.1996V3.1981V3.1481H4.41903H14.1612H14.163L14.163 3.14813C14.2614 3.15173 14.3599 3.14753 14.4577 3.13555C14.5509 3.12048 14.6182 3.08248 14.6632 3.02938C14.7085 2.97587 14.7348 2.90267 14.7378 2.81119C14.7378 2.81119 14.7378 2.81118 14.7378 2.81118L4.36903 4.05125ZM4.36903 4.05125H4.41903M4.36903 4.05125H4.41903M4.41903 4.05125H4.72706H4.7455H4.76394H4.78237H4.80081H4.81925H4.83769H4.85612H4.87456H4.893H4.91144H4.92988H4.94831H4.96675H4.98519H5.00363H5.02206H5.0405H5.05894H5.07738H5.09582H5.11425H5.13269H5.15113H5.16957H5.188H5.20644H5.22488H5.24332H5.26176H5.28019H5.29863H5.31707H5.33551H5.35395H5.37238H5.39082H5.40926H5.4277H5.44614H5.46457H5.48301H5.50145H5.51989H5.53832H5.55676H5.5752H5.59364H5.61208H5.63051H5.64895H5.66739H5.68583H5.70427H5.7227H5.74114H5.75958H5.77802H5.79646H5.81489H5.83333H5.85177H5.87021H5.88865H5.90708H5.92552H5.94396H5.9624H5.98084H5.99927H6.01771H6.03615H6.05459H6.07303H6.09146H6.1099H6.12834H6.14678H6.16522H6.18365H6.20209H6.22053H6.23897H6.25741H6.27584H6.29428H6.31272H6.33116H6.3496H6.36803H6.38647H6.40491H6.42335H6.44179H6.46023H6.47866H6.4971H6.51554H6.53398H6.55242H6.57085H6.58929H6.60773H6.62617H6.64461H6.66304H6.68148H6.69992H6.71836H6.7368H6.75524H6.77367H6.79211H6.81055H6.82899H6.84743H6.86586H6.8843H6.90274H6.92118H6.93962H6.95806H6.97649H6.99493H7.01337H7.03181H7.05025H7.06868H7.08712H7.10556H7.124H7.14244H7.16088H7.17931H7.19775H7.21619H7.23463H7.25307H7.27151H7.28994H7.30838H7.32682H7.34526H7.3637H7.38214H7.40057H7.41901H7.43745H7.45589H7.47433H7.49276H7.5112H7.52964H7.54808H7.56652H7.58496H7.60339H7.62183H7.64027H7.65871H7.67715H7.69559H7.71403H7.73246H7.7509H7.76934H7.78778H7.80622H7.82466H7.84309H7.86153H7.87997H7.89841H7.91685H7.93529H7.95372H7.97216H7.9906H8.00904H8.02748H8.04592H8.06435H8.08279H8.10123H8.11967H8.13811H8.15655H8.17499H8.19342H8.21186H8.2303H8.24874H8.26718H8.28562H8.30405H8.32249H8.34093H8.35937H8.37781H8.39625H8.41469H8.43312H8.45156H8.47H8.48844H8.50688H8.52532H8.54376H8.56219H8.58063H8.59907H8.61751H8.63595H8.65439H8.67283H8.69126H8.7097H8.72814H8.74658H8.76502H8.78346H8.8019H8.82033H8.83877H8.85721H8.87565H8.89409H8.91253H8.93097H8.9494H8.96784H8.98628H9.00472H9.02316H9.0416H9.06004H9.07847H9.09691H9.11535H9.13379H9.15223H9.17067H9.18911H9.20755H9.22598H9.24442H9.26286H9.2813H9.29974H9.31818H9.33662H9.35505H9.37349H9.39193H9.41037H9.42881H9.44725H9.46569H9.48413H9.50256H9.521H9.53944H9.55788H9.57632H9.59476H9.6132H9.63164H9.65007H9.66851H9.68695H9.70539H9.72383H9.74227H9.76071H9.77915H9.79759H9.81602H9.83446H9.8529H9.87134H9.88978H9.90822H9.92666H9.9451H9.96353H9.98197H10.0004H10.0189H10.0373H10.0557H10.0742H10.0926H10.111H10.1295H10.1479H10.1664H10.1848H10.2032H10.2217H10.2401H10.2586H10.277H10.2954H10.3139H10.3323H10.3508H10.3692H10.3876H10.4061H10.4245H10.4429H10.4614H10.4798H10.4983H10.5167H10.5351H10.5536H10.572H10.5905H10.6089H10.6273H10.6458H10.6642H10.6827H10.7011H10.7195H10.738H10.7564H10.7748H10.7933H10.8117H10.8302H10.8486H10.867H10.8855H10.9039H10.9224H10.9408H10.9592H10.9777H10.9961H11.0146H11.033H11.0514H11.0699H11.0883H11.1067H11.1252H11.1436H11.1621H11.1805H11.1989H11.2174H11.2358H11.2543H11.2727H11.2911H11.3096H11.328H11.3465H11.3649H11.3833H11.4018H11.4202H11.4387H11.4571H11.4755H11.494H11.5124H11.5308H11.5493H11.5677H11.5862H11.6046H11.623H11.6415H11.6599H11.6784H11.6968H11.7152H11.7337H11.7521H11.7706H11.789H11.8074H11.8259H11.8443H11.8628H11.8812H11.8996H11.9181H11.9365H11.955H11.9734H11.9918H12.0103H12.0287H12.0471H12.0656H12.084H12.1025H12.1209H12.1393H12.1578H12.1762H12.1947H12.2131H12.2315H12.25H12.2684H12.2869H12.3053H12.3237H12.3422H12.3606H12.3791H12.3975H12.4159H12.4344H12.4528H12.4713H12.4897H12.5081H12.5266H12.545H12.5634H12.5819H12.6003H12.6188H12.6372H12.6556H12.6741H12.6925H12.711H12.7294H12.7478H12.7663H12.7847H12.8032H12.8216H12.84H12.8585H12.8769H12.8954H12.9138H12.9322H12.9507H12.9691H12.9876H13.006H13.0244H13.0429H13.0613H13.0798H13.0982H13.1166H13.1351H13.1535H13.1719H13.1904H13.2088H13.2273H13.2457H13.2641H13.2826H13.301H13.3195H13.3379H13.3563H13.3748H13.3932H13.4117H13.4301H13.4485H13.467H13.4854H13.5039H13.5223H13.5407H13.5592H13.5776H13.5961H13.6145H13.6329H13.6514H13.6698H13.6883H13.7067H13.7251H13.7436H13.762H13.7805H13.7989H13.8173H13.8358H13.8542H13.8727H13.8911H13.9095H13.928H13.9464H13.9649H13.9833H14.0017H14.0202H14.0386H14.057H14.0755H14.0939H14.1124H14.1308H14.1492H14.1677V4.05128M4.41903 4.05125L14.1677 4.05128M14.1677 4.05128L14.1695 4.05122M14.1677 4.05128L14.1695 4.05122M14.1695 4.05122C14.2817 4.04722 14.3939 4.05737 14.5035 4.08143C14.588 4.1038 14.6476 4.14726 14.6858 4.20327C14.7244 4.25991 14.7434 4.33295 14.7398 4.41747C14.7362 4.50212 14.7113 4.57244 14.6684 4.62515C14.6258 4.6774 14.5625 4.71593 14.475 4.73262C14.3858 4.74719 14.2954 4.75331 14.2051 4.75092V4.7509M14.1695 4.05122L14.2051 4.7509M14.2051 4.7509H14.2037M14.2051 4.7509H14.2037M14.2037 4.7509H14.1842H14.1647H14.1451H14.1256H14.1061H14.0865H14.067H14.0475H14.0279H14.0084H13.9889H13.9693H13.9498H13.9303H13.9107H13.8912H13.8716H13.8521H13.8326H13.813H13.7935H13.774H13.7544H13.7349H13.7154H13.6958H13.6763H13.6568H13.6372H13.6177H13.5982H13.5786H13.5591H13.5395H13.52H13.5005H13.4809H13.4614H13.4419H13.4223H13.4028H13.3833H13.3637H13.3442H13.3247H13.3051H13.2856H13.266H13.2465H13.227H13.2074H13.1879H13.1684H13.1488H13.1293H13.1098H13.0902H13.0707H13.0512H13.0316H13.0121H12.9925H12.973H12.9535H12.9339H12.9144H12.8949H12.8753H12.8558H12.8363H12.8167H12.7972H12.7777H12.7581H12.7386H12.7191H12.6995H12.68H12.6604H12.6409H12.6214H12.6018H12.5823H12.5628H12.5432H12.5237H12.5042H12.4846H12.4651H12.4456H12.426H12.4065H12.3869H12.3674H12.3479H12.3283H12.3088H12.2893H12.2697H12.2502H12.2307H12.2111H12.1916H12.1721H12.1525H12.133H12.1134H12.0939H12.0744H12.0548H12.0353H12.0158H11.9962H11.9767H11.9572H11.9376H11.9181H11.8986H11.879H11.8595H11.8399H11.8204H11.8009H11.7813H11.7618H11.7423H11.7227H11.7032H11.6837H11.6641H11.6446H11.6251H11.6055H11.586H11.5664H11.5469H11.5274H11.5078H11.4883H11.4688H11.4492H11.4297H11.4102H11.3906H11.3711H11.3515H11.332H11.3125H11.2929H11.2734H11.2539H11.2343H11.2148H11.1953H11.1757H11.1562H11.1367H11.1171H11.0976H11.078H11.0585H11.039H11.0194H10.9999H10.9804H10.9608H10.9413H10.9218H10.9022H10.8827H10.8632H10.8436H10.8241H10.8045H10.785H10.7655H10.7459H10.7264H10.7069H10.6873H10.6678H10.6483H10.6287H10.6092H10.5896H10.5701H10.5506H10.531H10.5115H10.492H10.4724H10.4529H10.4334H10.4138H10.3943H10.3748H10.3552H10.3357H10.3161H10.2966H10.2771H10.2575H10.238H10.2185H10.1989H10.1794H10.1599H10.1403H10.1208H10.1012H10.0817H10.0622H10.0426H10.0231H10.0036H9.98403H9.96449H9.94496H9.92542H9.90588H9.88635H9.86681H9.84728H9.82774H9.8082H9.78867H9.76913H9.74959H9.73006H9.71052H9.69099H9.67145H9.65191H9.63238H9.61284H9.59331H9.57377H9.55423H9.5347H9.51516H9.49562H9.47609H9.45655H9.43702H9.41748H9.39794H9.37841H9.35887H9.33933H9.3198H9.30026H9.28073H9.26119H9.24165H9.22212H9.20258H9.18304H9.16351H9.14397H9.12443H9.1049H9.08536H9.06583H9.04629H9.02675H9.00722H8.98768H8.96814H8.94861H8.92907H8.90953H8.89H8.87046H8.85093H8.83139H8.81185H8.79232H8.77278H8.75324H8.73371H8.71417H8.69463H8.6751H8.65556H8.63603H8.61649H8.59695H8.57742H8.55788H8.53834H8.51881H8.49927H8.47973H8.4602H8.44066H8.42112H8.40159H8.38205H8.36252H8.34298H8.32344H8.30391H8.28437H8.26483H8.2453H8.22576H8.20622H8.18669H8.16715H8.14761H8.12808H8.10854H8.089H8.06947H8.04993H8.0304H8.01086H7.99132H7.97179H7.95225H7.93271H7.91318H7.89364H7.8741H7.85457H7.83503H7.81549H7.79596H7.77642H7.75688H7.73735H7.71781H7.69827H7.67874H7.6592H7.63966H7.62013H7.60059H7.58105H7.56152H7.54198H7.52244H7.50291H7.48337H7.46383H7.4443H7.42476H7.40522H7.38569H7.36615H7.34661H7.32708H7.30754H7.288H7.26847H7.24893H7.22939H7.20986H7.19032H7.17078H7.15125H7.13171H7.11217H7.09264H7.0731H7.05356H7.03403H7.01449H6.99495H6.97542H6.95588H6.93634H6.91681H6.89727H6.87773H6.8582H6.83866H6.81912H6.79959H6.78005H6.76051H6.74098H6.72144H6.7019H6.68237H6.66283H6.64329H6.62375H6.60422H6.58468H6.56514H6.54561H6.52607H6.50653H6.487H6.46746H6.44792H6.42839H6.40885H6.38931H6.36978H6.35024H6.3307H6.31117H6.29163H6.27209H6.25255H6.23302H6.21348H6.19394H6.17441H6.15487H6.13533H6.1158H6.09626H6.07672H6.05719H6.03765H6.01811H5.99858H5.97904H5.9595H5.93996H5.92043H5.90089H5.88135H5.86182H5.84228H5.82274H5.80321H5.78367H5.76413H5.74459H5.72506H5.70552H5.68598H5.66645H5.64691H5.62737H5.60784H5.5883H5.56876H5.54922H5.52969H5.51015H5.49061H5.47108H5.45154H5.432H5.41247H5.39293H5.37339H5.35385H5.33432H5.31478H5.29524H5.27571H5.25617H5.23663H5.2171H5.19756H5.17802H5.15848H5.13895H5.11941H5.09987H5.08034H5.0608H5.04126H5.02172H5.00219H4.98265H4.96311H4.94358H4.92404H4.9045H4.88496H4.86543H4.84589H4.82635H4.80682H4.78728H4.76774H4.7482H4.72867H4.70913H4.68959H4.67006H4.65052H4.63098H4.61144H4.59191H4.57237H4.55283H4.53329H4.51376H4.49422H4.47468H4.45515H4.43561H4.41607H4.39653H4.377H4.35746H4.33792H4.31839H4.29885H4.27931H4.25977H4.24024H4.2207H4.20116C3.95789 4.7509 3.83024 4.72204 3.75873 4.65065C3.68724 4.57929 3.6584 4.452 3.65815 4.20963L3.60815 4.20968H3.65815C3.65815 4.06095 3.65781 3.91233 3.65748 3.7638C3.65681 3.46705 3.65614 3.17064 3.65815 2.87426L3.60815 2.87393L3.65814 2.87441C3.65958 2.72548 3.69458 2.62618 3.75713 2.56163C3.81983 2.49691 3.91852 2.45851 4.06634 2.44986L4.06343 2.39995L4.06618 2.44987C4.10085 2.44796 4.13428 2.44859 4.16963 2.44924C4.18829 2.44959 4.2075 2.44995 4.22771 2.44995H4.24715H4.2666H4.28604H4.30549H4.32493H4.34438H4.36382H4.38327H4.40271H4.42216H4.4416H4.46105H4.48049H4.49994H4.51939H4.53883H4.55828H4.57772H4.59717H4.61661H4.63606H4.6555H4.67495H4.69439H4.71384H4.73328H4.75273H4.77217H4.79162H4.81107H4.83051H4.84996H4.8694H4.88885H4.90829H4.92774H4.94718H4.96663H4.98607H5.00552H5.02496H5.04441H5.06385H5.0833H5.10275H5.12219H5.14164H5.16108H5.18053H5.19997H5.21942H5.23886H5.25831H5.27775H5.2972H5.31664H5.33609H5.35553H5.37498H5.39443H5.41387H5.43332H5.45276H5.47221H5.49165H5.5111H5.53054H5.54999H5.56943H5.58888H5.60832H5.62777H5.64721H5.66666H5.68611H5.70555H5.725H5.74444H5.76389H5.78333H5.80278H5.82222H5.84167H5.86111H5.88056H5.9H5.91945H5.93889H5.95834H5.97779H5.99723H6.01668H6.03612H6.05557H6.07501H6.09446H6.1139H6.13335H6.15279H6.17224H6.19168H6.21113H6.23057H6.25002H6.26946H6.28891H6.30836H6.3278H6.34725H6.36669H6.38614H6.40558H6.42503H6.44447H6.46392H6.48336H6.50281H6.52225H6.5417H6.56115H6.58059H6.60004H6.61948H6.63893H6.65837H6.67782H6.69726H6.71671H6.73615H6.7556H6.77504H6.79449H6.81393H6.83338H6.85282H6.87227H6.89172H6.91116H6.93061H6.95005H6.9695H6.98894H7.00839H7.02783H7.04728H7.06672H7.08617H7.10561H7.12506H7.14451H7.16395H7.1834H7.20284H7.22229H7.24173H7.26118H7.28062H7.30007H7.31951H7.33896H7.3584H7.37785H7.39729H7.41674H7.43618H7.45563H7.47508H7.49452H7.51397H7.53341H7.55286H7.5723H7.59175H7.61119H7.63064H7.65008H7.66953H7.68897H7.70842H7.72787H7.74731H7.76676H7.7862H7.80565H7.82509H7.84454H7.86398H7.88343H7.90287H7.92232H7.94176H7.96121H7.98065H8.0001H8.01955H8.03899H8.05844H8.07788H8.09733H8.11677H8.13622H8.15566H8.17511H8.19455H8.214H8.23344H8.25289H8.27233H8.29178H8.31122H8.33067H8.35012H8.36956H8.38901H8.40845H8.4279H8.44734H8.46679H8.48623H8.50568H8.52512H8.54457H8.56401H8.58346H8.6029H8.62235H8.6418H8.66124H8.68069H8.70013H8.71958H8.73902H8.75847H8.77791H8.79736H8.8168H8.83625H8.85569H8.87514H8.89459H8.91403H8.93348H8.95292H8.97237H8.99181H9.01126H9.0307H9.05015H9.06959H9.08904H9.10848H9.12793H9.14737H9.16682H9.18626H9.20571H9.22516H9.2446H9.26405H9.28349H9.30294H9.32238H9.34183H9.36127H9.38072H9.40016H9.41961H9.43905H9.4585H9.47794H9.49739H9.51684H9.53628H9.55573H9.57517H9.59462H9.61406H9.63351H9.65295H9.6724H9.69184H9.71129H9.73073H9.75018H9.76963H9.78907H9.80852H9.82796H9.84741H9.86685H9.8863H9.90574H9.92519H9.94463H9.96408H9.98352H10.003H10.0224H10.0419H10.0613H10.0808H10.1002H10.1196H10.1391H10.1585H10.178H10.1974H10.2169H10.2363H10.2558H10.2752H10.2946H10.3141H10.3335H10.353H10.3724H10.3919H10.4113H10.4308H10.4502H10.4697H10.4891H10.5085H10.528H10.5474H10.5669H10.5863H10.6058H10.6252H10.6447H10.6641H10.6836H10.703H10.7224H10.7419H10.7613H10.7808H10.8002H10.8197H10.8391H10.8586H10.878H10.8975H10.9169H10.9363H10.9558H10.9752H10.9947H11.0141H11.0336H11.053H11.0725H11.0919H11.1114H11.1308H11.1502H11.1697H11.1891H11.2086H11.228H11.2475H11.2669H11.2864H11.3058H11.3253H11.3447H11.3641H11.3836H11.403H11.4225H11.4419H11.4614H11.4808H11.5003H11.5197H11.5392H11.5586H11.578H11.5975H11.6169H11.6364H11.6558H11.6753H11.6947H11.7142H11.7336H11.753H11.7725H11.7919H11.8114H11.8308H11.8503H11.8697H11.8892H11.9086H11.9281H11.9475H11.9669H11.9864H12.0058H12.0253H12.0447H12.0642H12.0836H12.1031H12.1225H12.142H12.1614H12.1808H12.2003H12.2197H12.2392H12.2586H12.2781H12.2975H12.317H12.3364H12.3559H12.3753H12.3947H12.4142H12.4336H12.4531H12.4725H12.492H12.5114H12.5309H12.5503H12.5698H12.5892H12.6086H12.6281H12.6475H12.667H12.6864H12.7059H12.7253H12.7448H12.7642H12.7837H12.8031H12.8225H12.842H12.8614H12.8809H12.9003H12.9198H12.9392H12.9587H12.9781H12.9976H13.017H13.0364H13.0559H13.0753H13.0948H13.1142H13.1337H13.1531H13.1726H13.192H13.2114H13.2309H13.2503H13.2698H13.2892H13.3087H13.3281H13.3476H13.367H13.3865H13.4059H13.4253H13.4448H13.4642H13.4837H13.5031H13.5226H13.542H13.5615H13.5809H13.6004H13.6198H13.6392H13.6587H13.6781H13.6976H13.717H13.7365H13.7559H13.7754H13.7948H13.8143H13.8337H13.8531H13.8726H13.892H13.9115H13.9309H13.9504H13.9698H13.9893H14.0087H14.0282H14.0476H14.067H14.0865H14.1059H14.1254H14.1448H14.1643L14.1837 2.44996L14.1848 2.44994M14.2037 4.7509L14.1848 2.44994M14.1848 2.44994C14.2895 2.44769 14.3941 2.45785 14.4965 2.48023L14.1848 2.44994Z" fill="#774AD6" stroke="#774AD6" stroke-width="0.1"/>
<path d="M5.03413 15.6072C5.70922 15.6125 6.36724 15.82 6.92336 16.2029C7.18831 16.3833 7.26645 16.5952 7.13723 16.8077C7.008 17.0201 6.7686 17.0542 6.50414 16.8783C6.11051 16.6063 5.65109 16.445 5.17387 16.4114C3.74593 16.3222 2.5549 17.3543 2.41566 18.8013C2.28293 20.1666 3.30267 21.3926 4.73011 21.5835C6.05888 21.7614 7.33456 20.7914 7.56345 19.4246C7.58649 19.2868 7.589 19.1455 7.60552 19.0062C7.63558 18.7497 7.80987 18.5913 8.03726 18.6094C8.25664 18.6264 8.39487 18.7938 8.39988 19.0473C8.43744 20.9672 6.60081 22.6146 4.68003 22.3832C2.97712 22.1777 1.734 20.8916 1.61579 19.2116C1.47856 17.2696 3.07178 15.5907 5.03413 15.6072Z" fill="#774AD6"/>
<path d="M11.1891 9.19797H7.02349C6.93776 9.20057 6.85195 9.19789 6.76655 9.18995C6.5617 9.1654 6.443 9.04616 6.41996 8.83923C6.39692 8.6323 6.50912 8.47748 6.71497 8.42488C6.79822 8.40574 6.88349 8.39682 6.9689 8.39832C9.79372 8.39832 12.6184 8.39832 15.4429 8.39832C15.5446 8.3945 15.6463 8.40823 15.7434 8.4389C15.9252 8.50504 16.0113 8.64884 15.9908 8.84324C15.9869 8.92619 15.9543 9.00522 15.8987 9.06688C15.8431 9.12854 15.7679 9.16902 15.6858 9.18144C15.5932 9.19559 15.4994 9.20046 15.4058 9.19597L11.1891 9.19797Z" fill="#774AD6"/>
<path d="M7.19628 11.6014H3.40531C3.00162 11.6014 2.8143 11.4717 2.8163 11.2006C2.8183 10.9295 3.00713 10.7998 3.41132 10.7998C5.93863 10.7998 8.46579 10.7998 10.9928 10.7998C11.0936 10.7971 11.1943 10.8055 11.2933 10.8248C11.4961 10.8709 11.5938 11.0117 11.5898 11.2156C11.5843 11.4095 11.4806 11.5393 11.2893 11.5789C11.19 11.5958 11.0894 11.603 10.9888 11.6004C9.72427 11.6018 8.46011 11.6021 7.19628 11.6014Z" fill="#774AD6"/>
<path d="M9.21229 5.60406H13.0038C13.408 5.60406 13.5983 5.73382 13.5963 6.00488C13.5943 6.27594 13.4019 6.40571 12.9993 6.40571C10.4716 6.40571 7.94412 6.40571 5.4168 6.40571C5.30774 6.40904 5.1987 6.3986 5.09225 6.37465C4.90192 6.32454 4.80977 6.17924 4.81678 5.99035C4.82379 5.80146 4.92396 5.66418 5.11729 5.6261C5.21658 5.60974 5.31722 5.60303 5.4178 5.60606C6.68397 5.60406 7.9488 5.60339 9.21229 5.60406Z" fill="#774AD6"/>
<path d="M5.20238 13.5975C4.5703 13.5975 3.93772 13.5975 3.30564 13.5975C2.98609 13.5975 2.81029 13.4472 2.8158 13.1922C2.82081 12.9497 2.99761 12.8009 3.30113 12.8004C4.57397 12.7977 5.84648 12.7977 7.11865 12.8004C7.41466 12.8004 7.59847 12.9602 7.59947 13.2012C7.60047 13.4422 7.42067 13.5975 7.12266 13.5991C6.48256 13.5996 5.84247 13.5975 5.20238 13.5975Z" fill="#774AD6"/>
<path d="M4.89434 19.3599C5.36063 18.8895 5.78285 18.4521 6.2206 18.0307C6.32077 17.936 6.47554 17.8418 6.59875 17.8498C6.72196 17.8578 6.89525 17.9786 6.92581 18.0843C6.94221 18.16 6.94221 18.2384 6.9258 18.3141C6.90938 18.3898 6.87694 18.4611 6.83064 18.5232C6.51661 18.8794 6.16801 19.2046 5.83194 19.5413C5.70522 19.6681 5.58151 19.8003 5.44878 19.9181C5.12022 20.2067 4.68798 20.2152 4.36643 19.9216C4.06592 19.6485 3.78294 19.3584 3.50396 19.0643C3.33267 18.8839 3.33818 18.654 3.49144 18.4971C3.65271 18.3313 3.88311 18.3288 4.07393 18.5147C4.3469 18.7807 4.60534 19.0608 4.89434 19.3599Z" fill="#774AD6"/>
<path d="M14.1883 11.6004C13.744 11.6004 13.2998 11.6064 12.8555 11.6004C12.586 11.5954 12.4343 11.4611 12.4157 11.2432C12.3972 11.0252 12.5219 10.8454 12.7548 10.8208C12.9877 10.7963 13.2367 10.8023 13.4781 10.8018C14.1172 10.7998 14.7562 10.7998 15.3953 10.8018C15.4808 10.7999 15.5663 10.8056 15.6508 10.8188C15.8732 10.8579 16.0054 11.0132 15.9899 11.2221C15.9743 11.4311 15.8531 11.5779 15.6393 11.5884C15.2887 11.6059 14.9381 11.5999 14.5875 11.6034C14.4547 11.6034 14.3225 11.6034 14.1898 11.6034L14.1883 11.6004Z" fill="#774AD6"/>
<path d="M10.1995 13.5975C9.76271 13.5975 9.32597 13.6 8.88922 13.5975C8.59171 13.5975 8.4074 13.4412 8.40589 13.2032C8.40439 12.9652 8.59121 12.8024 8.88571 12.8024C9.76689 12.7991 10.6481 12.7991 11.5292 12.8024C11.8207 12.8024 12.0065 12.9748 11.9995 13.2127C11.9925 13.4507 11.8157 13.596 11.5332 13.5985C11.0885 13.6005 10.6437 13.5975 10.1995 13.5975Z" fill="#774AD6"/>
</g>
<defs>
<clipPath id="clip0_47_173">
<rect width="24" height="24" fill="white"/>
</clipPath>
</defs>
</svg>
