<svg width="32" height="32" viewBox="0 0 32 32" fill="none" xmlns="http://www.w3.org/2000/svg">
<path d="M14.1269 4C14.7099 4.12892 15.1257 4.50377 15.5308 4.91493C16.715 6.11648 17.9191 7.298 19.1051 8.49705C20.0707 9.47268 19.7796 11.0447 18.5416 11.5716C18.2269 11.7169 17.8747 11.7606 17.534 11.6968C17.4677 11.6772 17.397 11.6777 17.3309 11.6982C17.2648 11.7187 17.2063 11.7583 17.1627 11.8119C17.0264 11.9464 16.8828 12.0732 16.7325 12.1918C17.5616 12.6756 17.8477 13.6243 17.1833 14.4772C18.2066 15.3705 19.2293 16.2635 20.2517 17.1563L24.4548 20.8198C25.312 21.5639 26.1674 22.3055 27.0172 23.0564C27.6402 23.6053 27.984 24.2949 27.9997 25.1291C28.0085 25.707 27.8395 26.2736 27.5156 26.7524C27.1918 27.2312 26.7286 27.5991 26.1887 27.8063C25.6615 28.014 25.0831 28.055 24.5318 27.9237C23.9805 27.7924 23.4828 27.4952 23.1059 27.0722C21.6275 25.3982 20.1678 23.7079 18.7006 22.0245L14.5627 17.2721C14.537 17.2427 14.5095 17.2152 14.4838 17.1876C13.475 17.769 12.8676 17.6607 12.1925 16.7377C12.0366 16.9123 11.8794 17.0737 11.7423 17.2508C11.7005 17.3215 11.6852 17.4046 11.6991 17.4855C11.8137 18.3472 11.438 19.1013 10.6972 19.4762C9.96829 19.8467 9.11103 19.7077 8.49923 19.1007C7.18422 17.7965 5.8811 16.4836 4.56921 15.1782C4.27177 14.8821 4.11522 14.5161 4 14.1249V13.5617C4.01235 13.5419 4.02263 13.521 4.03068 13.4991C4.34378 12.3639 5.10774 11.8489 6.25682 11.9903C6.33737 11.9906 6.41479 11.9591 6.47223 11.9027C8.2857 10.0958 10.0958 8.28552 11.9026 6.47193C11.9323 6.43619 11.9545 6.39482 11.9679 6.3503C11.9812 6.30579 11.9854 6.25904 11.9803 6.21285C11.855 5.39179 12.2257 4.60453 12.9521 4.22717C13.1431 4.12829 13.3592 4.07635 13.5633 4.0025L14.1269 4ZM12.5313 7.26734L7.29067 12.5003L11.1806 16.3885L16.4219 11.1511C15.1294 9.8613 13.8157 8.55024 12.5313 7.26734ZM15.1463 16.5117L20.1559 22.2692L22.2693 20.1596L16.5146 15.1431L15.1463 16.5117ZM22.0502 24.4438C22.6519 25.1322 23.2399 25.8206 23.8461 26.4877C24.1742 26.8501 24.6057 27.029 25.0935 27.051C25.4822 27.0666 25.8663 26.9627 26.194 26.7532C26.5216 26.5437 26.7771 26.2387 26.9257 25.8794C27.0731 25.5234 27.1048 25.13 27.0164 24.755C26.928 24.3799 26.7239 24.0421 26.4329 23.7892C25.8067 23.226 25.1655 22.6797 24.5299 22.1271C24.5006 22.1034 24.4692 22.0824 24.436 22.0645L22.0502 24.4438ZM12.8989 5.86678C12.892 6.16028 13.0198 6.38995 13.2226 6.59146C14.2183 7.58274 15.2119 8.57548 16.2033 9.56968C16.524 9.88946 16.8377 10.2155 17.1664 10.5259C17.4532 10.7963 17.7926 10.8645 18.1627 10.7137C18.5203 10.566 18.7131 10.2881 18.7407 9.90386C18.7626 9.59596 18.6343 9.34814 18.4182 9.13224C17.1303 7.84934 15.8441 6.56455 14.5596 5.2779C14.5113 5.22704 14.4594 5.17977 14.4043 5.13646C14.0912 4.90742 13.7574 4.86674 13.4136 5.04009C13.0792 5.20718 12.9077 5.49067 12.8989 5.86678ZM5.8667 12.8933C5.47219 12.9084 5.18101 13.0892 5.02195 13.4528C4.85476 13.8358 4.92552 14.1938 5.2167 14.4866C6.53673 15.8146 7.86093 17.1384 9.1893 18.458C9.2738 18.5526 9.3767 18.629 9.49171 18.6825C9.60672 18.7361 9.73145 18.7657 9.85827 18.7695C9.9851 18.7733 10.1114 18.7512 10.2294 18.7046C10.3474 18.6581 10.4547 18.588 10.5447 18.4986C10.6347 18.4092 10.7056 18.3025 10.753 18.1849C10.8003 18.0672 10.8233 17.9412 10.8203 17.8144C10.8173 17.6876 10.7886 17.5628 10.7358 17.4475C10.6829 17.3322 10.6072 17.2289 10.5131 17.1438C9.19306 15.8133 7.86928 14.4883 6.54174 13.1687C6.45491 13.0779 6.34991 13.0065 6.2336 12.9591C6.11728 12.9116 5.99226 12.8892 5.8667 12.8933ZM13.0367 16.0643C13.0367 16.3403 13.1281 16.4867 13.3097 16.5649C13.3986 16.6082 13.4992 16.6211 13.5962 16.6017C13.6931 16.5822 13.781 16.5315 13.8463 16.4573C14.7197 15.5862 15.592 14.7136 16.4632 13.8396C16.668 13.633 16.6674 13.3552 16.4864 13.1687C16.3054 12.9822 16.008 12.9772 15.7976 13.1868C14.928 14.0504 14.0615 14.9178 13.1982 15.7889C13.1106 15.8797 13.0673 16.0105 13.0367 16.0643ZM23.0383 20.8254L20.8272 23.0339L21.3908 23.6822L23.6833 21.3905L23.0383 20.8254Z" fill="#774AD6"/>
</svg>
