<svg width="22" height="22" viewBox="0 0 22 22" fill="none" xmlns="http://www.w3.org/2000/svg">
<path d="M16.4517 5.5485L13.4671 2.56386C12.6035 1.70029 12.1718 1.26851 11.6739 1.10673C11.2359 0.964424 10.7641 0.964424 10.3261 1.10673C9.82825 1.26851 9.39646 1.70029 8.53289 2.56386L5.54838 5.54837M16.4517 5.5485L19.4361 8.53289C20.2997 9.39646 20.7315 9.82825 20.8933 10.3261C21.0356 10.7641 21.0356 11.2359 20.8933 11.6739C20.7315 12.1718 20.2997 12.6035 19.4361 13.4671L16.4516 16.4516M16.4517 5.5485L5.54837 16.4516M5.54837 16.4516L8.53289 19.4361C9.39646 20.2997 9.82825 20.7315 10.3261 20.8933C10.7641 21.0356 11.2359 21.0356 11.6739 20.8933C12.1718 20.7315 12.6035 20.2997 13.4671 19.4361L16.4516 16.4516M5.54837 16.4516L2.56386 13.4671C1.70029 12.6035 1.26851 12.1718 1.10673 11.6739C0.964424 11.2359 0.964424 10.7641 1.10673 10.3261C1.26851 9.82825 1.70029 9.39646 2.56386 8.53289L5.54838 5.54837M16.4516 16.4516L5.54838 5.54837" stroke="#58566C" stroke-width="1.8" stroke-linecap="round" stroke-linejoin="round"/>
</svg>
