<svg width="24" height="24" viewBox="0 0 24 24" fill="none" xmlns="http://www.w3.org/2000/svg">
<path d="M10.8802 2.09712C11.273 1.71234 11.4693 1.51995 11.6949 1.44768C11.8933 1.38409 12.1067 1.38409 12.3051 1.44768C12.5307 1.51995 12.727 1.71234 13.1198 2.09712L13.6902 2.65601C13.9252 2.88628 14.0427 3.00141 14.1813 3.07133C14.304 3.1332 14.4381 3.16913 14.5753 3.17688C14.7303 3.18564 14.8896 3.14469 15.2083 3.06278L15.9817 2.86398C16.5142 2.72711 16.7804 2.65867 17.0119 2.70886C17.2156 2.75302 17.4003 2.8597 17.5404 3.01399C17.6996 3.18935 17.7735 3.45414 17.9212 3.98373L18.1357 4.75296C18.2241 5.06989 18.2683 5.22835 18.3534 5.3582C18.4287 5.47312 18.5269 5.57129 18.6418 5.64658C18.7717 5.73167 18.9301 5.77587 19.247 5.86426L20.0163 6.07882C20.5459 6.22654 20.8107 6.30039 20.986 6.45959C21.1403 6.59966 21.247 6.78443 21.2911 6.98809C21.3413 7.21955 21.2729 7.4858 21.136 8.0183L20.9372 8.79175C20.8553 9.11041 20.8144 9.26975 20.8231 9.42474C20.8309 9.56191 20.8668 9.69601 20.9287 9.81868C20.9986 9.95729 21.1137 10.0748 21.344 10.3098L21.9029 10.8802C22.2877 11.273 22.4801 11.4693 22.5523 11.6949C22.6159 11.8933 22.6159 12.1067 22.5523 12.3051C22.4801 12.5307 22.2877 12.727 21.9029 13.1198L21.344 13.6902C21.1137 13.9252 20.9986 14.0427 20.9287 14.1813C20.8668 14.304 20.8309 14.4381 20.8231 14.5753C20.8144 14.7303 20.8553 14.8896 20.9372 15.2083L21.136 15.9817C21.2729 16.5142 21.3413 16.7804 21.2911 17.0119C21.247 17.2156 21.1403 17.4003 20.986 17.5404C20.8107 17.6996 20.5459 17.7735 20.0163 17.9212L19.247 18.1357C18.9301 18.2241 18.7717 18.2683 18.6418 18.3534C18.5269 18.4287 18.4287 18.5269 18.3534 18.6418C18.2683 18.7717 18.2241 18.9301 18.1357 19.247L17.9212 20.0163C17.7735 20.5459 17.6996 20.8107 17.5404 20.986C17.4003 21.1403 17.2156 21.247 17.0119 21.2911C16.7804 21.3413 16.5142 21.2729 15.9817 21.136L15.2083 20.9372C14.8896 20.8553 14.7303 20.8144 14.5753 20.8231C14.4381 20.8309 14.304 20.8668 14.1813 20.9287C14.0427 20.9986 13.9252 21.1137 13.6902 21.344L13.1198 21.9029C12.727 22.2877 12.5307 22.4801 12.3051 22.5523C12.1067 22.6159 11.8933 22.6159 11.6949 22.5523C11.4693 22.4801 11.273 22.2877 10.8802 21.9029L10.3098 21.344C10.0748 21.1137 9.95729 20.9986 9.81868 20.9287C9.69601 20.8668 9.56191 20.8309 9.42474 20.8231C9.26975 20.8144 9.11041 20.8553 8.79175 20.9372L8.0183 21.136C7.4858 21.2729 7.21955 21.3413 6.98809 21.2911C6.78443 21.247 6.59966 21.1403 6.45959 20.986C6.30039 20.8107 6.22654 20.5459 6.07882 20.0163L5.86426 19.247C5.77587 18.9301 5.73167 18.7717 5.64658 18.6418C5.57129 18.5269 5.47312 18.4287 5.3582 18.3534C5.22835 18.2683 5.06989 18.2241 4.75296 18.1357L3.98373 17.9212C3.45414 17.7735 3.18935 17.6996 3.01399 17.5404C2.8597 17.4003 2.75302 17.2156 2.70886 17.0119C2.65867 16.7804 2.72711 16.5142 2.86398 15.9817L3.06278 15.2083C3.14469 14.8896 3.18564 14.7303 3.17688 14.5753C3.16913 14.4381 3.1332 14.304 3.07133 14.1813C3.00141 14.0427 2.88628 13.9252 2.65601 13.6902L2.09712 13.1198C1.71234 12.727 1.51995 12.5307 1.44768 12.3051C1.38409 12.1067 1.38409 11.8933 1.44768 11.6949C1.51995 11.4693 1.71234 11.273 2.09712 10.8802L2.65601 10.3098C2.88628 10.0748 3.00141 9.95729 3.07133 9.81868C3.1332 9.69601 3.16913 9.56191 3.17688 9.42474C3.18564 9.26975 3.14469 9.11041 3.06278 8.79175L2.86398 8.0183C2.72711 7.4858 2.65867 7.21955 2.70886 6.98809C2.75302 6.78443 2.8597 6.59966 3.01399 6.45959C3.18935 6.30039 3.45414 6.22654 3.98373 6.07882L4.75296 5.86426C5.06989 5.77587 5.22835 5.73167 5.3582 5.64658C5.47312 5.57129 5.57129 5.47312 5.64658 5.3582C5.73167 5.22835 5.77587 5.06989 5.86426 4.75296L6.07882 3.98374C6.22654 3.45414 6.30039 3.18935 6.45959 3.01399C6.59966 2.8597 6.78443 2.75302 6.98809 2.70886C7.21955 2.65867 7.4858 2.72711 8.0183 2.86398L8.79175 3.06278C9.11041 3.14469 9.26975 3.18564 9.42474 3.17688C9.56191 3.16913 9.69601 3.1332 9.81868 3.07133C9.95729 3.00141 10.0748 2.88628 10.3098 2.65601L10.8802 2.09712Z" fill="#3F8AE2"/>
<path d="M8.33333 12L9.64641 13.3131C10.0424 13.7091 10.2404 13.9071 10.4688 13.9813C10.6696 14.0465 10.886 14.0465 11.0868 13.9813C11.3151 13.9071 11.5131 13.7091 11.9091 13.3131L15.6667 9.55556M8.79175 3.06278L8.0183 2.86398C7.4858 2.72711 7.21955 2.65867 6.98809 2.70886C6.78443 2.75302 6.59966 2.8597 6.45959 3.01399C6.30039 3.18935 6.22654 3.45414 6.07882 3.98374L5.86426 4.75296C5.77587 5.06989 5.73167 5.22835 5.64658 5.3582C5.57129 5.47312 5.47312 5.57129 5.3582 5.64658C5.22835 5.73167 5.06989 5.77587 4.75296 5.86426L3.98373 6.07882C3.45414 6.22654 3.18935 6.30039 3.01399 6.45959C2.8597 6.59966 2.75302 6.78443 2.70886 6.98809C2.65867 7.21955 2.72711 7.4858 2.86398 8.0183L3.06278 8.79175C3.14469 9.11041 3.18564 9.26975 3.17688 9.42474C3.16913 9.56191 3.1332 9.69601 3.07133 9.81868C3.00141 9.95729 2.88628 10.0748 2.65601 10.3098L2.09712 10.8802C1.71234 11.273 1.51995 11.4693 1.44768 11.6949C1.38409 11.8933 1.38409 12.1067 1.44768 12.3051C1.51995 12.5307 1.71234 12.727 2.09712 13.1198L2.65601 13.6902C2.88628 13.9252 3.00141 14.0427 3.07133 14.1813C3.1332 14.304 3.16913 14.4381 3.17688 14.5753C3.18564 14.7303 3.14469 14.8896 3.06278 15.2083L2.86398 15.9817C2.72711 16.5142 2.65867 16.7804 2.70886 17.0119C2.75302 17.2156 2.8597 17.4003 3.01399 17.5404C3.18935 17.6996 3.45414 17.7735 3.98373 17.9212L4.75296 18.1357C5.06989 18.2241 5.22835 18.2683 5.3582 18.3534C5.47312 18.4287 5.57129 18.5269 5.64658 18.6418C5.73167 18.7716 5.77587 18.9301 5.86426 19.247L6.07882 20.0163C6.22654 20.5459 6.30039 20.8107 6.45959 20.986C6.59966 21.1403 6.78443 21.247 6.98809 21.2911C7.21955 21.3413 7.4858 21.2729 8.0183 21.136L8.79175 20.9372C9.11041 20.8553 9.26975 20.8144 9.42474 20.8231C9.56191 20.8309 9.69601 20.8668 9.81868 20.9287C9.95729 20.9986 10.0748 21.1137 10.3098 21.344L10.8802 21.9029C11.273 22.2877 11.4693 22.4801 11.6949 22.5523C11.8933 22.6159 12.1067 22.6159 12.3051 22.5523C12.5307 22.4801 12.727 22.2877 13.1198 21.9029L13.6902 21.344C13.9252 21.1137 14.0427 20.9986 14.1813 20.9287C14.304 20.8668 14.4381 20.8309 14.5753 20.8231C14.7303 20.8144 14.8896 20.8553 15.2083 20.9372L15.9817 21.136C16.5142 21.2729 16.7804 21.3413 17.0119 21.2911C17.2156 21.247 17.4003 21.1403 17.5404 20.986C17.6996 20.8107 17.7735 20.5459 17.9212 20.0163L18.1357 19.247C18.2241 18.9301 18.2683 18.7716 18.3534 18.6418C18.4287 18.5269 18.5269 18.4287 18.6418 18.3534C18.7716 18.2683 18.9301 18.2241 19.247 18.1357L20.0163 17.9212C20.5459 17.7735 20.8107 17.6996 20.986 17.5404C21.1403 17.4003 21.247 17.2156 21.2911 17.0119C21.3413 16.7804 21.2729 16.5142 21.136 15.9817L20.9372 15.2083C20.8553 14.8896 20.8144 14.7303 20.8231 14.5753C20.8309 14.4381 20.8668 14.304 20.9287 14.1813C20.9986 14.0427 21.1137 13.9252 21.344 13.6902L21.9029 13.1198C22.2877 12.727 22.4801 12.5307 22.5523 12.3051C22.6159 12.1067 22.6159 11.8933 22.5523 11.6949C22.4801 11.4693 22.2877 11.273 21.9029 10.8802L21.344 10.3098C21.1137 10.0748 20.9986 9.95729 20.9287 9.81868C20.8668 9.69601 20.8309 9.56191 20.8231 9.42474C20.8144 9.26975 20.8553 9.11041 20.9372 8.79175L21.136 8.0183C21.2729 7.4858 21.3413 7.21955 21.2911 6.98809C21.247 6.78443 21.1403 6.59966 20.986 6.45959C20.8107 6.30039 20.5459 6.22654 20.0163 6.07882L19.247 5.86426C18.9301 5.77587 18.7716 5.73167 18.6418 5.64658C18.5269 5.57129 18.4287 5.47312 18.3534 5.3582C18.2683 5.22835 18.2241 5.06989 18.1357 4.75296L17.9212 3.98373C17.7735 3.45414 17.6996 3.18935 17.5404 3.01399C17.4003 2.8597 17.2156 2.75302 17.0119 2.70886C16.7804 2.65867 16.5142 2.72711 15.9817 2.86398L15.2083 3.06278C14.8896 3.14469 14.7303 3.18564 14.5753 3.17688C14.4381 3.16913 14.304 3.1332 14.1813 3.07133C14.0427 3.00141 13.9252 2.88628 13.6902 2.65601L13.1198 2.09712C12.727 1.71234 12.5307 1.51995 12.3051 1.44768C12.1067 1.38409 11.8933 1.38409 11.6949 1.44768C11.4693 1.51995 11.273 1.71234 10.8802 2.09712L10.3098 2.65601C10.0748 2.88628 9.95729 3.00141 9.81868 3.07133C9.69601 3.1332 9.56191 3.16913 9.42474 3.17688C9.26975 3.18564 9.11041 3.14469 8.79175 3.06278Z" stroke="#FAFAFA" stroke-width="1.5" stroke-linecap="round" stroke-linejoin="round"/>
</svg>
